<svg viewBox="30.503635454335665 -5.684341886080802e-14 346.4398835628734 544.9999999999997" xmlns="http://www.w3.org/2000/svg" xmlns:xlink="http://www.w3.org/1999/xlink" xmlns:blush="http://design.blush" overflow="visible" width="346.4398835628734px" height="544.9999999999997px"><defs><path d="M148.640872,414.988848 L27.7458936,419.210594 C18.7158011,419.525932 11.1398329,412.461227 10.8244951,403.431135 L0.375077719,104.198971 C0.0597399402,95.168878 7.12444451,87.5929099 16.154537,87.2775721 L44.8578599,0.650926334 L340.15489,0.650926334 L340.15489,545.324194 L210.432361,545.324194 C170.3946,458.393575 149.797437,414.94846 148.640872,414.988848 Z" id="mastercompositionphone-path-1"/></defs><g id="Master/Composition/Phone" stroke="none" stroke-width="1" fill="none" fill-rule="evenodd" blush:has-customizable-colors="true" blush:i="0"><g id="Background" opacity=".2" transform="translate(46.000000, -1.000000)" blush:i="0.0"><circle id="Oval" fill="#FFA434" cx="154.851" cy="198.267" r="154.851" blush:i="0.0.0"/><circle id="Oval" fill="#ffa434" cx="249.109" cy="518.069" r="27.604" blush:color="Bottom-500" blush:i="0.0.1"/><polygon id="Polygon" fill="#ffa434" points="129.277228 0.98019802 162.277228 33.980198 129.277228 66.980198 96.2772277 33.980198" blush:color="Bottom-500" blush:i="0.0.2"/><polygon id="Polygon" fill="#FFA434" points="37.7029703 465.554455 53.8613861 481.712871 37.7029703 497.871287 21.5445545 481.712871" blush:i="0.0.3"/><polygon id="Polygon" fill="#2026A2" points="271.326733 43.4158416 279.405941 51.4950495 271.326733 59.5742574 263.247525 51.4950495" blush:i="0.0.4"/></g><g id="Phone" transform="translate(31.830542, 74.998197)" blush:i="0.1"><path d="M23.6844272,4.19999901 L143.520295,0.0152382774 C157.065434,-0.457768391 168.429386,10.1392885 168.902393,23.6844272 L179.313777,321.827451 C179.786784,335.37259 169.189727,346.736542 155.644588,347.209549 L35.8087197,351.394309 C22.2635809,351.867316 10.8996288,341.270259 10.4266221,327.72512 L0.0152382774,29.5820966 C-0.457768391,16.0369579 10.1392885,4.67300568 23.6844272,4.19999901 Z" id="base" fill="#F2F2F2" blush:i="0.1.0"/><path d="M42.5752937,13.6798635 C42.7508502,18.7071431 46.8976668,22.6594379 51.8955462,22.627117 L52.1640861,22.6215571 L116.370557,20.3794177 C121.397837,20.2038613 125.350132,16.0570446 125.317811,11.0591652 L125.312251,10.7906253 L125.217065,8.06485602 L144.064084,7.40670361 C153.094176,7.09136583 160.670144,14.1560704 160.985482,23.1861629 L171.4349,322.418327 C171.750237,331.44842 164.685533,339.024388 155.65544,339.339726 L34.760462,343.561471 C25.7303695,343.876809 18.1544014,336.812104 17.8390636,327.782012 L7.38964619,28.5498477 C7.07430841,19.5197552 14.139013,11.9437871 23.1691055,11.6284493 L42.4801077,10.9540942 L42.5752937,13.6798635 Z" id="Screen" fill="#240E6A" blush:i="0.1.1"/></g><g id="Character" transform="translate(294.500000, 349.500000) scale(-1, 1) translate(-294.500000, -349.500000) translate(191.000000, 200.000000)" blush:i="0.2"><g id="Head/Front" transform="translate(74.572859, 52.187723) rotate(-27.000000) translate(-74.572859, -52.187723) translate(28.790680, 17.177822) scale(0.6732647058823529 0.6732692307692307)" blush:width="91.564" blush:height="70.02" blush:component="Head/Front" blush:i="0.2.0"><g id="Head/Front/Short 2" stroke="none" stroke-width="1" fill="none" fill-rule="evenodd" blush:i="0.2.0.0"><g id="Head" transform="translate(54.000000, 31.000000)" fill="#b28b67" blush:color="Skin-500" blush:i="0.2.0.0.0"><path d="M38.1433414,9.13393292 C43.9381521,19.9350547 43.249578,47.3329958 35.7603014,49.2634576 C32.773664,50.0333035 26.4113241,48.1475566 19.935865,44.2446031 L24,73 L0,73 L8.26160177,34.4893378 C3.65406109,29.0807313 0.535660132,22.452516 1.05677633,15.0254539 C2.55833022,-6.37502057 32.3485306,-1.66718886 38.1433414,9.13393292 Z" id="SKIN" blush:i="0.2.0.0.0.0"/></g><path d="M60.4181384,70.3075201 C57.4059021,56.9064588 48.8245327,47.7714043 50.1351137,41.781703 C51.0088343,37.7885688 53.3375617,35.3053788 57.1212959,34.3321331 C59.0782074,26.4155009 65.3896485,23.0482486 76.0556193,24.2303763 C92.0545754,26.0035679 101.819448,32.6477587 97.6024819,47.2678779 C93.7260987,47.2678779 89.0464758,45.8659867 82.57553,48.2678779 C80.5223249,49.0299883 79.0538125,51.3933595 78.1699927,55.3579915 L75.2457978,55.3579915 C72.4077436,50.6530572 69.6094038,48.9241222 66.8507787,50.1711866 C64.0921535,51.418251 63.4650732,54.4473753 64.9695377,59.2585597 L63.529076,70.3075201 L60.4181384,70.3075201 Z" id="Hair" fill="#a55728" blush:color="Hair-500" blush:i="0.2.0.0.1"/></g></g><g id="Bottom/Standing" transform="translate(4.712871, 137.346535) scale(0.6732666666666667 0.6732677824267782)" blush:width="201.98" blush:height="160.911" blush:component="Bottom/Standing" blush:i="0.2.1"><g id="Bottom/Standing/Sprint" stroke="none" stroke-width="1" fill="none" fill-rule="evenodd" blush:i="0.2.1.0"><path d="M207.469522,-9.65840194 C188.34471,5.93412613 195.620321,142.644251 194.343793,144.365431 C193.776447,145.1304 163.468239,151.639612 103.419169,163.893066 L106.01112,174.474064 C176.253239,170.987921 213.421261,166.637951 217.515185,161.424153 C223.376511,153.959489 230.620797,112.212202 239.248044,36.1822931 L207.469522,-9.65840194 Z" id="SKIN" fill="#b28b67" transform="translate(171.333606, 82.407831) rotate(-55.000000) translate(-171.333606, -82.407831)" blush:color="Skin-500" blush:i="0.2.1.0.0"/><path d="M207.469522,-9.65840194 C188.34471,5.93412613 195.620321,142.644251 194.343793,144.365431 C193.776447,145.1304 163.468239,151.639612 103.419169,163.893066 L106.01112,174.474064 C176.253239,170.987921 213.421261,166.637951 217.515185,161.424153 C223.376511,153.959489 230.620797,112.212202 239.248044,36.1822931 L207.469522,-9.65840194 Z" id="shadow" fill-opacity=".1" fill="#000" transform="translate(171.333606, 82.407831) rotate(-55.000000) translate(-171.333606, -82.407831)" blush:i="0.2.1.0.1"/><path d="M113.540088,152.75781 L118.105527,169.799273 C170.465638,175.811529 204.983252,168.36956 217.132934,156.81223 C225.232723,149.107343 232.495664,107.473517 238.921759,31.9107522 L204.926407,-16.6396419 C159.401042,17.7063231 186.537309,130.140454 185.373895,132.713083 C184.210481,135.285712 156.597106,137.319958 113.540088,152.75781 Z" id="Pant" fill="#e87613" transform="translate(176.230924, 77.646617) rotate(-55.000000) translate(-176.230924, -77.646617)" blush:color="Bottom-700" blush:i="0.2.1.0.2"/><g id="Right" transform="translate(219.664877, 196.035191) rotate(20.000000) translate(-219.664877, -196.035191) translate(190.664877, 185.535191)" fill="#E4E4E4" blush:i="0.2.1.0.3"><path d="M1.67813181,6.40192425 C0.559377268,9.38841089 4.54747351e-13,11.6229931 4.54747351e-13,13.1056708 C4.54747351e-13,14.908957 0.300414205,17.5404001 0.901242614,21 C2.99318117,21 21.7937852,21 57.3030548,21 C58.768738,16.1545073 57.9226607,13.5385816 54.7648228,13.1522232 C51.606985,12.7658647 48.9837155,12.4170139 46.8950143,12.1056708 L20.6799926,0.41888346 C20.1755635,0.194006431 19.584344,0.4206282 19.359467,0.925057349 C19.35562,0.933686736 19.3518954,0.94237021 19.3482945,0.951105155 L17.6632131,5.03869504 L17.6632131,5.03869504 C14.7398812,6.40265216 12.3643706,7.08463071 10.5366811,7.08463071 C9.05172687,7.08463071 7.00099246,6.48490544 4.38447792,5.28545491 L4.38448339,5.28544297 C3.38038273,4.82514778 2.19325534,5.26598921 1.73296014,6.27008987 C1.71312074,6.31336808 1.69483298,6.35734088 1.67813181,6.40192425 Z" id="shoe" blush:i="0.2.1.0.3.0"/></g><polygon id="SKIN" fill="#b28b67" points="130 0 78.2540376 124.226909 27.3958106 229.25029 39.3949124 229.25029 170.673688 0" blush:color="Skin-500" blush:i="0.2.1.0.4"/><g id="Left" transform="translate(25.000000, 218.000000)" fill="#E4E4E4" blush:i="0.2.1.0.5"><path d="M1.67813181,6.40192425 C0.559377268,9.38841089 0,11.6229931 0,13.1056708 C0,14.908957 0.300414205,17.5404001 0.901242614,21 C2.99318117,21 21.7937852,21 57.3030548,21 C58.768738,16.1545073 57.9226607,13.5385816 54.7648228,13.1522232 C51.606985,12.7658647 48.9837155,12.4170139 46.8950143,12.1056708 L20.6799926,0.41888346 C20.1755635,0.194006431 19.584344,0.4206282 19.359467,0.925057349 C19.35562,0.933686736 19.3518954,0.94237021 19.3482945,0.951105155 L17.6632131,5.03869504 L17.6632131,5.03869504 C14.7398812,6.40265216 12.3643706,7.08463071 10.5366811,7.08463071 C9.05172687,7.08463071 7.00099246,6.48490544 4.38447792,5.28545491 L4.38448339,5.28544297 C3.38038273,4.82514778 2.19325534,5.26598921 1.73296014,6.27008987 C1.71312074,6.31336808 1.69483298,6.35734088 1.67813181,6.40192425 Z" id="shoe" blush:i="0.2.1.0.5.0"/></g><path d="M31.9885488,207.432889 L58.6506859,212.432889 C79.2657755,182.124875 165.540767,57.851839 175,2.84217094e-14 L115.644073,2.84217094e-14 C84.0548806,41.821022 51.6389867,176.623522 31.9885488,207.432889 Z" id="Pant" fill="#ffa434" blush:color="Bottom-500" blush:i="0.2.1.0.6"/></g></g><g id="Body" transform="translate(99.164335, 132.426606) rotate(-14.000000) translate(-99.164335, -132.426606) translate(12.986117, 69.476111) scale(0.673265625 0.6732673796791444)" blush:width="172.356" blush:height="125.901" blush:component="Body" blush:i="0.2.2"><g id="Body/Hoodie" stroke="none" stroke-width="1" fill="none" fill-rule="evenodd" blush:i="0.2.2.0"><path d="M68.3079281,93.0198914 L89.2053198,93.1020711 C76.3021447,134.755739 69.3363474,156.856914 68.3079281,159.405597 C65.9939846,165.140133 70.8906002,173.873732 72.9845874,178.567103 C66.1645409,181.61887 66.8912241,170.316929 58.2879189,174.319492 C50.4352209,177.972846 44.4616931,184.59248 35.3890352,178.994371 C34.2736052,178.306117 33.0512757,175.714714 36.0045784,173.68967 C43.3623323,168.644547 53.9653015,159.814672 55.3979297,156.908251 C57.3515741,152.944826 61.6549068,131.648706 68.3079281,93.0198914 L68.3079281,93.0198914 Z M190.781205,92.2114854 L222.679476,115.635084 C231.330944,117.969562 238.558965,120.874047 244.363541,124.34854 C245.734683,125.597945 247.391836,128.128197 241.70538,127.690906 C236.018925,127.253615 230.01796,127.049392 229.233339,128.988954 C228.448719,130.928516 231.889854,133.24802 230.303794,135.864997 C229.246421,137.609648 224.250967,133.234999 215.31743,122.74105 L183.729774,109.642447 L190.781205,92.2114854 Z" id="SKIN" fill="#b28b67" blush:color="Skin-500" blush:i="0.2.2.0.0"/><path d="M122.731734,9.58031077 L131.216685,7.34914009 C165.5935,32.1628362 183.361709,84.0563407 224.996623,108.72736 L216.58973,121.240539 C147.889238,118.771641 125.383314,55.5469019 122.731734,9.58031077 Z" id="Coat-Back" fill="#28aa4d" transform="translate(173.864178, 64.294840) rotate(5.000000) translate(-173.864178, -64.294840)" blush:color="Top-700" blush:i="0.2.2.0.1"/><path d="M90,114 C124.671756,114 150.175573,114 166.511451,114 C170.007634,114 169.348845,108.951637 168.84345,106.404206 C163.010588,77.0037663 140.241304,45.3115155 140.241304,3.4607303 L118.1718,0 C99.917485,29.3584068 93.6048263,65.5045499 90,114 Z" id="Shirt" fill="#C7D1D9" blush:i="0.2.2.0.2"/><path d="M116.510031,-7.10542736e-15 C117.255457,-6.66133815e-15 117.93832,0.0466286213 118.558619,0.139885864 L125.471587,0.534739944 C145.293986,67.7151944 150.760885,112.536948 141.872285,135 L141.872285,135 L81.6511486,135.001552 C78.0833907,143.320741 74.6693386,150.320224 71.4089926,156 L71.4089926,156 L55,156 C53.4556773,106.066899 65.3273884,63.686084 90.6151334,28.8575562 C87.4099906,27.9369844 84.8714148,25.7879767 83,22.4111902 C74.933557,7.85607578 77.8467271,-0.157592785 86.4671964,-2.7917309 C95.0876658,-5.42586901 102.775319,-2.04281037e-14 116.510031,-7.10542736e-15 Z" id="Coat-Front" fill="#43d26c" blush:color="Top-500" blush:i="0.2.2.0.3"/><path d="M104,135 L81.6515228,135.000679 C85.8135041,125.295819 90.1846546,113.79505 94.7649742,100.498371 C96.6589721,116.343356 99.7372842,127.844605 104,135 Z" id="Shade" fill-opacity=".1" fill="#000" blush:i="0.2.2.0.4"/></g></g></g><g id="illustration" transform="translate(38.845110, -0.650926)" blush:i="0.3"><mask id="mastercompositionphone-mask-2" fill="#fff" blush:i="0.3.0"><use xlink:href="#mastercompositionphone-path-1" blush:i="0.3.0.0"/></mask><g id="Screen" blush:i="0.3.1"/><g id="" mask="url(#mastercompositionphone-mask-2)" blush:i="0.3.2"><g transform="translate(163.987678, 118.803809) rotate(44.000000) translate(-163.987678, -118.803809) translate(85.677617, 59.000000) scale(1.1516176470588235 1.1500769230769232)" blush:width="156.62" blush:height="119.608" id="Head/Front" blush:component="Head/Front" blush:i="0.3.2.0"><g id="Head/Front/Hijab 1" stroke="none" stroke-width="1" fill="none" fill-rule="evenodd" blush:i="0.3.2.0.0"><g id="Head" transform="translate(54.000000, 31.000000)" fill="#b28b67" blush:color="Skin-500" blush:i="0.3.2.0.0.0"><path d="M38.1433414,9.13393292 C43.9381521,19.9350547 43.249578,47.3329958 35.7603014,49.2634576 C32.773664,50.0333035 26.4113241,48.1475566 19.935865,44.2446031 L24,73 L0,73 L8.26160177,34.4893378 C3.65406109,29.0807313 0.535660132,22.452516 1.05677633,15.0254539 C2.55833022,-6.37502057 32.3485306,-1.66718886 38.1433414,9.13393292 Z" id="SKIN" blush:i="0.3.2.0.0.0.0"/></g><g id="Hijab" transform="translate(36.000000, 28.000000)" blush:i="0.3.2.0.0.1"><path d="M50.7350002,5.01147183 C50.1852708,4.68336774 49.0351409,3.99129844 48.4524743,3.74047035 C48.3145899,3.68011316 47.3491609,2.99135428 47.3231986,3 C46.5922497,3.24668063 44.475629,4.157139 44.2939574,4.94386372 C44.2657992,5.00348239 44.2381578,5.05940846 44.2112267,5.10828502 C43.9113039,5.65351385 43.6361163,6.21230459 43.373587,6.77787628 C42.7975078,8.01939475 42.3002198,9.31697358 41.8252774,10.6043474 C40.9001924,13.1115541 40.0965233,15.677171 39.3576307,18.2486288 C38.6053695,20.8663449 37.9669033,23.5146088 37.2521648,26.1431341 C36.2236827,29.9254283 34.9073547,33.6149377 33.8859767,37.3956877 C33.2337544,39.8097738 32.8709924,42.2521922 33.0422662,44.7368405 C33.0439454,44.7667169 33.0449141,44.7961906 33.0476266,44.826537 C33.0486599,44.8389576 33.0502099,44.8512438 33.0513078,44.8636644 C33.0804347,45.2456133 33.1219615,45.6285021 33.177309,46.0125322 C33.2257461,46.3409049 33.2743124,46.670486 33.3261079,47 C34.2590719,45.1396022 34.9713564,43.0896733 35.7272342,41.1440101 C35.8011816,40.9535392 35.8717061,40.7616583 35.940616,40.5691733 C36.1843517,40.1746025 36.4328666,39.7828514 36.6841585,39.3925774 C38.2688928,36.9315618 39.8598917,34.4796098 41.3795265,31.9740815 C44.1128024,27.4677025 46.8205682,22.8660544 50.061078,18.727928 C51.0179377,17.5059467 51.9970785,16.302697 52.9419258,15.0707121 C53.4795781,14.3696557 54.0032806,13.6568501 54.5099977,12.9313553 C54.872243,12.4125789 56.4471311,10.6043474 55.8768295,9.51791803 C55.585039,8.96205474 52.1610544,5.8627163 50.7350002,5.01147183 Z" id="Front" fill="#2C2C2C" blush:i="0.3.2.0.0.1.0"/><path d="M48.6260171,3.83116599 C49.1606177,4.01081921 48.9005286,2.8983607 48.3827244,2.5068843 C45.9838484,0.693257683 36.8126531,0.035129961 28.8316831,1.69188377 C23.4851811,2.80175357 17.2670643,5.56416284 12.9966544,9.11545816 C9.14699464,12.3169592 6.49948445,17.4491331 5.13642247,22.407675 C3.70525344,27.6142408 3.48849539,33.0422873 4.28584125,38.381368 C4.46101123,39.5541291 4.83740954,40.6717368 5.04712657,41.8196221 C5.28329677,43.1122936 5.40444175,44.3568809 5.8254551,45.6145396 C6.08327479,46.3844871 6.52139715,47.1392958 6.74137959,47.9136449 C6.99248728,48.7972339 6.8394274,49.6146653 6.65629515,50.5133931 C6.35787446,51.9781941 5.98785913,53.4399939 5.46202016,54.8389709 C4.67237336,56.9397371 3.71413697,58.9072548 3.11334736,61.0872499 C2.31396158,63.9879079 -1.02991389,73.427136 1.41378875,76 L47.9323913,76 C46.761016,72.8047679 43.2449088,69.0442856 42.533108,65.623838 C42.1138713,63.608903 41.9144197,59.2085647 41.8705285,59.0486397 C40.8222264,51.8223372 38.7753261,48.3714635 37.4933414,47.1190983 C36.2113566,45.8667332 34.5038477,45.4816245 34.4158679,44.3952949 C34.0522355,39.9023228 35.8388772,35.5973526 37.1489671,31.4041565 C38.710362,26.4065336 39.854626,21.2849322 41.464321,16.3042488 C42.1771089,14.098711 45.8502346,2.8983607 48.6260171,3.83116599 Z" id="Turban" fill="#8991DC" blush:i="0.3.2.0.0.1.1"/><path d="M14.373523,47.8804331 C23.9808594,50.889665 22.9106953,57.1023672 35.0112076,63.394114 L34,64.0068145 C23.4044272,59.6340646 20.9275677,50.2553327 13.6694535,48.7363176 L14.373523,47.8804331 Z M22.2134556,15.2923054 C23.6982144,26.5510679 24.1316878,32.9820818 31.8664459,45.2976376 L31.0435239,45.5492301 C23.0831253,34.8261446 21.8212801,26.0740972 21.4451908,15.3541394 L22.2134556,15.2923054 Z M8.78209035,23.3643083 C12.0510625,31.2963757 13.5415304,35.9803784 22.6701438,42.3991504 L21.9652448,42.892726 C12.9031248,37.7568562 10.2641419,31.6306096 8.09450288,23.6947526 L8.78209035,23.3643083 Z M32.3160356,9 C30.5618427,14.565951 30.1845546,17.5370354 30.5618427,25.1421085 L29.7013199,25.1421085 C28.0937737,17.9652054 29.5245027,11.2089071 31.2344582,9 L32.3160356,9 Z" id="Shade" fill-opacity=".2" fill="#000" blush:i="0.3.2.0.0.1.2"/></g></g></g></g><g id="" mask="url(#mastercompositionphone-mask-2)" blush:i="0.3.3"><g transform="translate(28.693069, 365.730659) rotate(12.000000) translate(-28.693069, -365.730659) translate(-144.000000, 228.047491) scale(1.1512866666666668 1.1521589958158995)" blush:width="345.386" blush:height="275.366" id="Bottom/Standing" blush:component="Bottom/Standing" blush:i="0.3.3.0"><g id="Bottom/Standing/Jogging" stroke="none" stroke-width="1" fill="none" fill-rule="evenodd" blush:i="0.3.3.0.0"><polygon id="SKIN" fill="#997659" points="130 0 204.306413 124.226909 260.014844 229.25029 272.013946 229.25029 178.673688 5.090379e-13" blush:color="Skin-700" blush:i="0.3.3.0.0.0"/><g id="Right" transform="translate(251.000000, 218.000000)" fill="#E4E4E4" blush:i="0.3.3.0.0.1"><path d="M1.67813181,6.40192425 C0.559377268,9.38841089 0,11.6229931 0,13.1056708 C0,14.908957 0.300414205,17.5404001 0.901242614,21 C2.99318117,21 21.7937852,21 57.3030548,21 C58.768738,16.1545073 57.9226607,13.5385816 54.7648228,13.1522232 C51.606985,12.7658647 48.9837155,12.4170139 46.8950143,12.1056708 L20.6799926,0.41888346 C20.1755635,0.194006431 19.584344,0.4206282 19.359467,0.925057349 C19.35562,0.933686736 19.3518954,0.94237021 19.3482945,0.951105155 L17.6632131,5.03869504 L17.6632131,5.03869504 C14.7398812,6.40265216 12.3643706,7.08463071 10.5366811,7.08463071 C9.05172687,7.08463071 7.00099246,6.48490544 4.38447792,5.28545491 L4.38448339,5.28544297 C3.38038273,4.82514778 2.19325534,5.26598921 1.73296014,6.27008987 C1.71312074,6.31336808 1.69483298,6.35734088 1.67813181,6.40192425 Z" id="shoe" blush:i="0.3.3.0.0.1.0"/></g><path d="M244.543057,212.432889 L267.683113,205.432889 C257.544824,175.124875 245.118911,141.772016 230.405374,105.374313 C215.691837,68.97661 199.890046,33.851839 183,2.84217094e-14 L117.644073,2.84217094e-14 C136.422172,42.821022 156.329475,81.7294172 177.365982,116.725186 C198.402489,151.720954 220.794847,183.623522 244.543057,212.432889 Z" id="Pant" fill="#e87613" blush:color="Bottom-700" blush:i="0.3.3.0.0.2"/><path d="M125.116628,2.84217094e-14 C118.103498,43.6541888 104.577091,99.4274685 103.300563,101.148648 C102.449544,102.296102 71.8126514,112.562199 11.3898843,131.94694 L13.9818352,142.527938 C86.0358431,132.131776 124.00216,124.066006 127.880787,118.330628 C133.698727,109.72756 162.748486,41.763137 174,2.84217094e-14 L125.116628,2.84217094e-14 Z" id="SKIN" fill="#b28b67" blush:color="Skin-500" blush:i="0.3.3.0.0.3"/><path d="M32.6295078,122.800477 L37.1949469,139.841939 C91.0871466,144.568621 124.108088,141.153296 136.25777,129.595966 C148.407453,118.038636 162.254504,74.839981 177.798925,-1.13686838e-13 L115.478146,-1.13686838e-13 C105.629567,61.2838742 100.12357,93.2121259 98.9601559,95.7847551 C97.7967416,98.3573843 75.6865256,107.362625 32.6295078,122.800477 Z" id="Pant" fill="#ffa434" blush:color="Bottom-500" blush:i="0.3.3.0.0.4"/><g id="Left" transform="translate(15.057502, 155.157254) rotate(80.000000) translate(-15.057502, -155.157254) translate(-13.942498, 144.657254)" fill="#E4E4E4" blush:i="0.3.3.0.0.5"><path d="M1.67813181,6.40192425 C0.559377268,9.38841089 0,11.6229931 0,13.1056708 C0,14.908957 0.300414205,17.5404001 0.901242614,21 C2.99318117,21 21.7937852,21 57.3030548,21 C58.768738,16.1545073 57.9226607,13.5385816 54.7648228,13.1522232 C51.606985,12.7658647 48.9837155,12.4170139 46.8950143,12.1056708 L20.6799926,0.41888346 C20.1755635,0.194006431 19.584344,0.4206282 19.359467,0.925057349 C19.35562,0.933686736 19.3518954,0.94237021 19.3482945,0.951105155 L17.6632131,5.03869504 L17.6632131,5.03869504 C14.7398812,6.40265216 12.3643706,7.08463071 10.5366811,7.08463071 C9.05172687,7.08463071 7.00099246,6.48490544 4.38447792,5.28545491 L4.38448339,5.28544297 C3.38038273,4.82514778 2.19325534,5.26598921 1.73296014,6.27008987 C1.71312074,6.31336808 1.69483298,6.35734088 1.67813181,6.40192425 Z" id="shoe" blush:i="0.3.3.0.0.5.0"/></g></g></g></g><g id="" mask="url(#mastercompositionphone-mask-2)" blush:i="0.3.4"><g transform="translate(76.428931, 237.169427) rotate(33.000000) translate(-76.428931, -237.169427) translate(-70.978244, 129.637579) scale(1.1516171875 1.1500748663101603)" blush:width="294.814" blush:height="215.064" id="Body" blush:component="Body" blush:i="0.3.4.0"><g id="Body/Pregnant" stroke="none" stroke-width="1" fill="none" fill-rule="evenodd" blush:i="0.3.4.0.0"><path d="M113.111009,-8.52651283e-14 L141.101479,4.32798224 C141.101479,20.0687681 153.625725,34.7964415 161.54868,47.4680378 C173.864991,67.1661596 195.780651,88.999709 181.72922,118.263682 C169.06816,144.632022 136.088855,148.914077 82.7913029,131.10985 C82.7913029,116.907461 94.4646183,102.629645 94.8366189,85.3605479 C95.1907507,68.920961 98.2646824,19.1115353 111.093625,2.2864273 C111.326248,1.5282447 111.563504,0.765217279 111.80423,9.9475983e-14 L111.80423,9.9475983e-14 L112.691303,0.418 L113.111009,-8.52651283e-14 Z" id="Shirt" fill="#43d26c" blush:color="Top-500" blush:i="0.3.4.0.0.0"/><path d="M145.863007,110.787221 C147.734877,101.126929 148.949202,94.6776016 149.505985,91.4392393 C164.417959,108.29011 173.032716,116.813278 175.350255,117.008742 C179.708836,117.37635 182.929474,113.51125 183.84651,114.597847 C185.362212,119.097853 181.081226,130.362106 172.89821,132 C168.990655,132.782127 162.94394,124.724092 160.45259,121.868948 C159.4727,120.745971 154.609505,117.052062 145.863007,110.787221 L145.863007,110.787221 Z M171.62123,59.2823205 C175.486784,59.2823205 177.563178,60.8804131 179.848781,64.1046411 C182.134384,67.328869 184.297191,82.5350373 180.6276,82.5350373 C176.958008,82.5350373 161.583419,76.656821 161.583419,72.7050102 C161.583419,68.7531993 172.074145,67.079644 172.074145,64.1046411 C172.074145,61.1296381 167.755676,59.2823205 171.62123,59.2823205 Z" id="SKIN" fill="#b28b67" blush:color="Skin-500" blush:i="0.3.4.0.0.1"/><path d="M138.057487,125.486286 L137.935966,125.928309 C137.745928,126.608445 137.552872,127.299009 137.356799,128 C93.5573771,97.3881106 93.5398025,60.2906013 106.568062,18.7087836 C96.7470859,59.6450778 100.744221,94.1699488 138.057487,125.486286 Z" id="Shade" fill-opacity=".2" fill="#000" blush:i="0.3.4.0.0.2"/></g></g></g></g></g></svg>