<svg viewBox="115.27999999999997 64.68553459119505 791.24 586.0703470766365" xmlns="http://www.w3.org/2000/svg" xmlns:xlink="http://www.w3.org/1999/xlink" xmlns:blush="http://design.blush" overflow="visible" width="791.24px" height="586.0703470766365px"><g id="Master/Scene/3 Characters" stroke="none" stroke-width="1" fill="none" fill-rule="evenodd" blush:i="0"><g id="Background" blush:width="1053" blush:height="680" blush:component="Background" blush:i="0.0" transform="scale(1 1)"><g id="Background/Wireframe" stroke="none" stroke-width="1" fill="none" fill-rule="evenodd" blush:i="0.0.0"><path d="M807.581488,225.207951 C807.098379,224.856731 805.952216,224.732194 805.419,224.626981 C803.202622,224.19018 800.919435,224 798.659884,224 C791.69246,224.010429 784.611902,224.694157 777.760135,225.877569 C773.409947,226.62878 768.150896,229.156949 763.823398,227.783971 C756.284311,225.391689 748.664864,225.509171 741.512138,228.924439 C734.972675,232.04738 730.008279,237.978547 727.1112,244.387311 C726.674101,245.354775 724.90081,248.915438 724.398793,251.315696 C724.184183,251.806483 723.978081,252.300645 723.792149,252.802168 C723.264605,254.226065 722.79158,255.675115 722.351961,257.126926 C722.164137,257.746238 721.691743,259.113695 722.252692,259.378106 C721.356434,261.031753 720.561967,262.736013 719.900174,264.495486 C717.975616,269.612558 715.871428,275.225633 715.195138,280.649141 C714.944602,282.657382 714.935148,284.677279 715.167721,286.689507 C715.282747,287.683966 715.235161,289.683924 715.90956,290.440044 C717.340924,292.044612 718.07583,289.798339 717.914479,288.728423 C716.682282,280.573989 719.061587,272.916478 721.881457,265.251298 C723.704855,260.294652 726.700888,255.760083 730.057126,251.653419 C732.773315,248.329254 735.687096,245.711516 739.410472,243.507574 C743.96361,240.812537 748.831573,238.633748 753.654785,236.44821 C756.826981,235.010203 760.002959,233.610845 763.263709,232.371914 C763.988846,232.096152 765.129652,231.389418 765.933573,231.386658 C767.633751,231.380523 770.042994,232.634792 771.685187,233.101346 C777.086681,234.636591 782.557191,236.602195 788.139576,237.386228 C791.720193,237.889591 795.074855,237.323039 798.423529,236.130425 C798.765771,236.008955 799.339325,235.695772 800.042086,235.248542 C802.528223,234.292426 804.880111,233.089077 806.927888,231.353223 C808.107771,230.352937 809.178301,229.060325 810.154604,227.877221 C810.446738,227.523547 810.575945,227.118034 810.580357,226.732766 C810.801585,226.617124 810.948441,226.482158 810.98153,226.324492 C811.225133,225.160099 809.003714,225.138627 807.581488,225.207951" id="Twisted-Leaf" fill="#89C5CC" blush:i="0.0.0.0"/><path d="M798.164074,257.594343 C795.06321,256.923087 791.63938,256.974462 788.480776,257.029836 C771.541191,257.2581 754.906807,265.20519 744.080752,277.903369 C734.864456,288.713602 732.330212,302.153791 730.509478,315.740107 C730.328959,317.089079 730.251549,318.429437 730.14971,319.781178 C730.127819,320.071276 730.095142,320.329996 730.060243,320.573641 C729.344196,321.207981 728.968564,321.947531 729.392419,322.759991 C727.81502,326.180565 726.48064,329.687892 725.335662,333.305352 C721.965765,343.953154 718.537811,354.80338 720.649469,366 C721.142802,359.838413 722.180548,353.537776 723.421655,347.477401 C723.493037,347.129468 723.570131,346.784303 723.650396,346.440369 C723.658645,346.404068 723.666259,346.367768 723.674508,346.331775 C724.113908,344.475823 724.684969,342.675553 725.379443,340.903586 C725.38674,340.884205 725.39372,340.865131 725.401334,340.846058 C725.493021,340.612872 725.590419,340.380917 725.686548,340.148961 C725.885467,339.668746 726.08978,339.189453 726.306466,338.712621 C726.379753,338.550191 726.450184,338.386223 726.517759,338.221024 C727.528855,335.765495 727.955882,332.998641 728.861649,330.457898 C729.078335,329.880163 729.304856,329.304581 729.542164,328.732075 C729.556123,328.698543 729.5704,328.665011 729.584676,328.631479 C730.226168,327.090852 730.934919,325.56899 731.684279,324.063125 C732.091636,323.759799 732.309273,323.007328 732.660476,322.323459 C732.733128,322.188716 733.301017,321.290119 733.470114,320.772372 C733.911418,319.926381 734.351135,319.080082 734.795611,318.235628 C734.782287,318.24055 734.768962,318.245472 734.755637,318.250395 C735.20043,317.439473 735.646493,316.631936 736.089065,315.827783 C736.186463,315.651201 736.284813,315.474312 736.382845,315.297115 C736.54179,315.015016 736.700736,314.733223 736.859364,314.452047 C738.343172,311.820859 739.916446,309.242277 741.550316,306.695689 C742.133433,305.78694 743.526506,304.483806 743.793635,303.463386 C743.80347,303.42524 743.805691,303.39017 743.811719,303.353561 C747.357059,298.419431 751.438561,293.868305 756.333192,290.262228 C755.741509,290.895952 754.483905,293.046616 754.15142,293.472381 C753.133979,294.77613 752.029292,295.989744 750.920482,297.218123 C748.934774,299.418624 746.996021,301.688958 745.273319,304.089728 C742.122964,308.48027 739.405029,313.100921 736.835887,317.814478 C736.811458,317.842165 736.784809,317.868314 736.761649,317.896616 C735.470416,319.473852 734.657605,321.857702 733.728044,323.661971 C737.406631,321.97368 741.474174,320.873891 745.249525,319.374794 C749.014406,317.880312 752.676813,316.216016 756.212634,314.261622 C760.912153,311.664274 765.787113,308.731606 770.227433,305.412858 C775.315907,302.285151 779.591888,297.980131 783.366287,293.462536 C787.831987,288.117408 791.924593,282.72552 794.455664,276.235381 C795.698992,273.046147 796.677093,269.720631 797.257038,266.356354 C797.282418,266.209613 797.314778,266.050566 797.349994,265.885367 C797.943263,264.723436 798.473716,263.535357 798.918826,262.319898 C799.625674,260.392268 801.295076,258.271752 798.164074,257.594343" id="Fill-10" fill="#56919C" blush:i="0.0.0.1"/><path d="M782.109518,318.176079 C778.407927,315.65948 773.485526,315 769.055885,315 C751.754538,315 735.492075,321.435864 721.44322,331.02544 C713.745146,336.279933 706.858636,342.97132 700.778838,349.938225 C697.26957,353.959835 694.140441,358.310507 691.9251,363.149181 C690.430187,366.415066 689.404124,369.817863 688.708646,373.327749 C687.861044,377.605221 687.187744,381.969449 686.883148,386.318088 C686.76325,388.0305 685.770799,397.117163 688.61058,397.27102 C688.594293,397.495026 688.590481,397.708527 688.607807,397.9 C682.441725,407.566504 678.632018,418.895265 675.099186,429.636051 C672.025501,438.982643 669.28656,448.408196 667.508536,458.077411 C665.167753,470.807483 663.630217,483.729028 662.899047,496.6421 C662.742071,499.417272 662.634302,502.193799 662.541433,504.972699 C662.462771,507.342897 662.38307,509.713095 662.305448,512.083293 C662.218817,514.739515 661.752393,517.79766 662.173769,520.438292 C662.540393,522.738001 664.52564,522.389961 664.613311,520.101435 C664.719348,517.337786 664.702022,514.568714 664.822613,511.803031 C664.983054,508.132511 665.148347,504.461991 665.327501,500.792488 C666.574648,475.301506 671.253441,450.185336 679.888175,426.106509 C683.382543,416.362399 687.38665,407.138147 692.532907,398.124345 C697.057496,390.199059 702.500033,382.526584 708.06316,375.380746 C713.470351,368.436546 719.092041,361.652981 725.717271,355.769508 C731.093621,350.995223 737.007433,346.836024 743.086538,342.965897 C750.807829,338.050634 758.514219,333.25466 766.87797,329.481456 C771.225484,327.520299 775.655125,325.764508 780.036599,323.882651 C780.824946,323.5441 781.670123,323.215715 782.428321,322.823619 C784.957614,321.515842 784.124912,319.546212 782.109518,318.176079" id="Fill-1" fill="#C1DEE2" transform="translate(723.000000, 418.500000) rotate(32.000000) translate(-723.000000, -418.500000)" blush:i="0.0.0.2"/><path d="M265.210947,281.694637 C263.842872,282.767603 262.501106,283.863775 261.192035,285.003909 C260.194408,285.873246 258.428825,286.913411 258.070674,288.230299 C257.69837,289.598282 258.873747,290.879185 259.802286,291.706472 C264.71238,296.081582 270.241308,299.039569 277.045099,299.531382 C287.521323,300.289001 296.638695,297.698031 305.728203,292.599689 C312.11311,289.018397 316.342433,283.720922 317.266133,276.567848 C324.86996,279.628633 332.224335,283.84722 338.473834,289.025026 C341.557454,291.580043 344.213313,294.410558 346.670011,297.548019 C348.243233,299.55789 349.765219,301.600254 351.177575,303.720909 C351.791521,304.642259 352.415584,306.276333 353.429185,306.806942 C354.619114,307.430378 356.057178,306.453267 355.998247,305.171998 C355.949195,304.105638 354.760095,302.86857 354.204367,301.996929 C353.280798,300.5493 352.343694,299.110749 351.356683,297.702879 C349.759706,295.423605 348.109101,293.176394 346.308801,291.043124 C342.26323,286.250707 337.115517,282.291539 331.779364,278.915479 C321.542246,272.43849 310.30725,268.358108 297.850967,268.012448 C290.191757,267.799669 283.748556,270.334155 277.198714,274.119023 C273.120852,276.475452 268.911325,278.792472 265.210947,281.694637" id="Fill-16" fill="#C7D1D9" blush:i="0.0.0.3"/><path d="M347.535655,282.007477 C339.574153,273.792364 331.585088,265.679541 322.690108,258.445718 C317.448096,254.183156 311.923388,250.307035 306.512679,246.265293 C307.137256,246.813165 307.749389,247.376996 308.346975,247.954514 C306.658122,246.805763 304.447175,246.156628 302.656516,245.093238 C300.659368,243.907337 298.75028,242.550687 296.877577,241.18317 C293.222284,238.514478 289.6219,235.795061 285.864645,233.265524 C281.678301,230.447523 277.339873,227.843592 273.082397,225.131814 C269.469061,222.83034 265.811527,220.311238 261.945996,218.42994 C259.839205,217.40444 257.727451,216.188838 255.611987,215.1193 C254.903992,214.761457 247.719977,210.216276 247.738085,210.202603 C248.135202,209.902768 251.750331,211.604736 252.309357,211.83371 C253.942499,212.502059 255.504292,213.301509 257.074477,214.098485 C256.212631,212.395212 255.530424,210.605734 255.159094,208.722094 C255.044365,208.140672 254.12525,203.908082 254.595554,203.552989 C254.830454,203.375632 257.122435,210.948332 257.23982,211.676418 C257.335225,212.267796 257.321177,213.119445 257.51442,213.679431 C257.826332,214.583853 257.8106,214.31075 258.497785,214.820231 C259.757283,215.754089 261.429141,216.3376 262.792285,217.118287 C263.527361,217.529439 265.803205,219.159833 267.174038,219.624633 C271.321757,221.643111 275.525895,224.748491 279.466798,227.326652 C278.432568,225.378965 277.645395,223.342439 277.071441,221.208256 C276.934885,220.701623 275.461911,216.156226 275.819291,215.886393 C276.221438,215.58276 279.028037,222.524789 279.19426,223.182019 C279.503102,224.402703 279.567205,225.761447 279.953848,226.949261 C280.37833,228.252926 281.702591,228.715047 282.896335,229.474967 C287.287994,232.270787 291.528846,235.241482 295.699115,238.348492 C300.249324,230.2401 295.002747,220.448561 290.58089,213.645256 C287.393739,208.742149 283.102865,204.53839 278.572359,200.868505 C272.52602,195.970592 265.608195,192.057749 258.698891,188.478675 C250.648149,184.308323 241.946724,181.72439 232.900509,180.530669 C228.169178,179.906248 223.328753,179.923734 218.549632,180.123923 C216.214997,180.221549 213.974137,180.531421 211.736823,181.294279 C210.728452,181.638584 209.753903,182.072425 208.804199,182.558175 C208.082618,182.92729 206.337065,183.316923 205.922214,183.86686 C202.506995,188.320616 200.759802,192.758763 201.026611,198.355412 C201.27891,203.653321 202.948858,208.953983 205.215136,213.679671 C207.739008,218.941856 210.985107,223.717819 215.230401,227.726231 C218.469367,230.784561 222.090555,233.44618 225.687875,236.072917 C238.482378,245.415689 254.7036,253.541258 271.274721,251.453778 C276.638809,250.778326 281.740757,248.898674 286.50855,246.344549 C287.631971,245.742698 288.748644,245.133972 289.809118,244.423256 C290.524223,243.944342 292.435672,241.785597 293.154717,241.70724 C294.140473,241.599731 296.264171,243.608742 297.189004,244.220299 C304.217463,248.869028 311.061841,253.769501 317.762766,258.868258 C324.891951,264.293177 331.671636,270.087012 338.251632,276.153258 C341.050234,278.73354 343.831047,281.319531 346.548569,283.986518 C347.181071,284.606795 348.728036,286.891776 349.875225,286.995245 C350.600699,287.060703 351.089745,286.440072 350.986178,285.767585 C350.806244,284.598241 348.350804,282.848587 347.535655,282.007477" id="Leaf" fill="#C1DEE2" blush:i="0.0.0.4"/><g id="Mobile3" transform="translate(264.000000, 118.000000)" blush:i="0.0.0.5"><g id="Group" transform="translate(-0.000000, 192.000000)" fill="#89C5CC" blush:i="0.0.0.5.0"><path d="M12.139863,0 C10.8150371,0 9.4942504,0.0266022626 8.17108772,0.095441451 C7.1624999,0.14817927 5.62122565,-0.0609051802 4.76778691,0.567748289 C3.88108497,1.22067049 3.94214671,2.55731751 4.08066419,3.50123112 C4.81292983,8.49288902 6.60011418,12.9191321 10.3388981,16.4555996 C16.0955705,21.9011294 22.6949899,24.6679981 30.5042395,25.9001029 C35.9898168,26.7656098 41.0539017,25.563841 45.0920545,21.6628758 C48.0425006,27.1389749 50.2808765,33.1989237 51.4039848,39.3151105 C51.9580547,42.3330672 52.1272219,45.3146208 52.0298082,48.3876489 C51.9670833,50.3559829 51.8585027,52.31965 51.647519,54.2786499 C51.5560451,55.1299223 51.1219604,56.4184986 51.4553052,57.222867 C51.8463854,58.1674807 53.1652714,58.2589551 53.7573564,57.4534199 C54.250127,56.7829963 54.1596035,55.4664176 54.2608187,54.6730168 C54.4285603,53.355038 54.583947,52.0361258 54.6951411,50.7120799 C54.8757128,48.5689643 55.0092408,46.4197815 55,44.2684985 C54.9769279,39.4350541 53.9022889,34.582708 52.4322929,29.9945178 C49.6122862,21.1922025 45.0366951,13.3692704 37.9205081,7.23138172 C33.5449714,3.45712737 28.5371962,1.92866404 22.8556037,1.10819426 C19.3182997,0.597384143 15.7232603,0 12.139863,0" id="Fill-16" blush:i="0.0.0.5.0.0"/><path d="M32.5712675,35 C18.2723696,35 8.64204555,46.5241625 4.08868149,58.5015953 C2.37224237,63.0163306 1.96994464,67.9738742 1.30842479,72.7144486 C1.09603594,74.2357354 1.17471582,76.5539408 0.557219238,77.9092029 C0.333122071,78.4006816 -0.180638832,78.5773956 0.0650016363,79.2469528 C0.213697249,79.6524625 0.505468481,79.9008173 0.943593663,79.9813279 C1.84302649,80.1468978 3.11478377,79.1673519 3.88589345,78.780719 C10.2819123,75.5730304 14.484261,70.6132124 17.9124559,64.5448952 C20.0375153,60.7836392 22.1937187,56.8791017 23.4561093,52.7498622 C24.227219,50.2274235 24.6761159,47.5708006 24.9397871,44.953978 C25.0435228,43.9234876 25.1439802,42.8684346 25.1378918,41.8315761 C25.1318035,40.8029052 24.6531676,40.2591173 24.3091772,39.363721 C29.080316,37.5576904 34.465673,37.0655295 39.2986316,38.9370602 C43.7686325,40.6680385 47.4818078,44.0130955 49.5609705,48.2155678 C50.1011922,49.3079195 50.5177741,50.460313 50.8212537,51.6356771 C51.0198267,52.4055314 51.0294275,53.4044089 51.397537,54.1003482 C52.290179,55.7876597 54.1681928,54.6596013 53.9878848,53.088962 C53.4851297,48.7075013 50.9786134,44.3087559 47.774984,41.2625435 C43.7344442,37.4207769 38.2575282,35 32.5712675,35" id="Fill-18" blush:i="0.0.0.5.0.1"/></g><rect id="Container" fill="#C7D1D9" x="48" y="0" width="143" height="271" rx="8" blush:i="0.0.0.5.1"/><circle id="Touch" fill="#FFF" cx="119" cy="240" r="15" blush:i="0.0.0.5.2"/><g id="Camera" transform="translate(104.000000, 14.000000)" fill="#FFF" blush:i="0.0.0.5.3"><circle id="Lens" cx="2" cy="2" r="2" blush:i="0.0.0.5.3.0"/><rect id="Sensor" x="9" y="0" width="21" height="4" rx="2" blush:i="0.0.0.5.3.1"/></g><g id="Rows" transform="translate(64.000000, 28.000000)" blush:i="0.0.0.5.4"><g id="Row" blush:i="0.0.0.5.4.0"><rect id="Container" fill="#FFF" x="0" y="0" width="110" height="48" rx="4" blush:i="0.0.0.5.4.0.0"/><g id="Text-Stuff" transform="translate(9.000000, 14.400000)" fill="#C7D1D9" blush:i="0.0.0.5.4.0.1"><rect id="Label" x="0" y="0" width="52" height="7.2" rx="3" blush:i="0.0.0.5.4.0.1.0"/><rect id="Label" x="0" y="12" width="34.904" height="7.2" rx="3" blush:i="0.0.0.5.4.0.1.1"/></g><g id="Check" transform="translate(91.244275, 17.000000)" blush:i="0.0.0.5.4.0.2"><circle id="Background" fill="#C7D1D9" cx="7" cy="7" r="7" blush:i="0.0.0.5.4.0.2.0"/><circle id="Indicator" fill="#F2F2F2" cx="7" cy="7" r="3" blush:i="0.0.0.5.4.0.2.1"/></g></g><g id="Row" transform="translate(0.000000, 56.000000)" blush:i="0.0.0.5.4.1"><rect id="Background" fill="#FFF" x="0" y="0" width="110" height="37" rx="4" blush:i="0.0.0.5.4.1.0"/><g id="Text" transform="translate(39.000000, 11.100000)" fill="#C7D1D9" blush:i="0.0.0.5.4.1.1"><rect id="Name" x="0" y="0" width="52" height="5.55" rx="2.775" blush:i="0.0.0.5.4.1.1.0"/><rect id="Name" x="0" y="9.25" width="34.904" height="5.55" rx="2.775" blush:i="0.0.0.5.4.1.1.1"/></g><circle id="Avatar" fill="#C5CFD6" cx="21" cy="18.5" r="12" blush:i="0.0.0.5.4.1.2"/></g><g id="Row" transform="translate(0.000000, 101.000000)" blush:i="0.0.0.5.4.2"><rect id="Container" fill="#FFF" x="0" y="0" width="110" height="37" rx="4" blush:i="0.0.0.5.4.2.0"/><g id="Text-Stuff" transform="translate(9.000000, 11.100000)" fill="#C7D1D9" blush:i="0.0.0.5.4.2.1"><rect id="Label" x="0" y="0" width="52" height="5.55" rx="2.775" blush:i="0.0.0.5.4.2.1.0"/><rect id="Label" x="0" y="9.25" width="34.904" height="5.55" rx="2.775" blush:i="0.0.0.5.4.2.1.1"/></g><g id="Check" transform="translate(91.244275, 11.500000)" blush:i="0.0.0.5.4.2.2"><circle id="Background" fill="#C7D1D9" cx="7" cy="7" r="7" blush:i="0.0.0.5.4.2.2.0"/><circle id="Indicator" fill="#F2F2F2" cx="7" cy="7" r="3" blush:i="0.0.0.5.4.2.2.1"/></g></g><g id="Row" transform="translate(0.000000, 146.000000)" blush:i="0.0.0.5.4.3"><rect id="Background" fill="#FFF" x="0" y="0" width="110" height="37" rx="4" blush:i="0.0.0.5.4.3.0"/><g id="Text" transform="translate(39.000000, 11.100000)" fill="#C7D1D9" blush:i="0.0.0.5.4.3.1"><rect id="Name" x="0" y="0" width="52" height="5.55" rx="2.775" blush:i="0.0.0.5.4.3.1.0"/><rect id="Name" x="0" y="9.25" width="34.904" height="5.55" rx="2.775" blush:i="0.0.0.5.4.3.1.1"/></g><circle id="Avatar" fill="#C5CFD6" cx="21" cy="18.5" r="12" blush:i="0.0.0.5.4.3.2"/></g></g></g><g id="Web" transform="translate(426.000000, 164.000000)" blush:i="0.0.0.6"><rect id="Container" fill="#F2F2F2" x="0" y="0" width="302" height="311" rx="8" blush:i="0.0.0.6.0"/><rect id="Background" fill="#FFF" x="225" y="39" width="63" height="73" rx="8" blush:i="0.0.0.6.1"/><g id="Profile-Info" transform="translate(234.000000, 52.000000)" fill="#C7D1D9" blush:i="0.0.0.6.2"><ellipse id="Avatar" cx="22.5" cy="14.462" rx="14.4" ry="14.462" blush:i="0.0.0.6.2.0"/><rect id="Name" x="0" y="32.538" width="45" height="5.423" rx="2.712" blush:i="0.0.0.6.2.1"/><rect id="Name" x="7.2" y="41.577" width="30.6" height="5.423" rx="2.712" blush:i="0.0.0.6.2.2"/></g><path d="M8,0 L294,0 C298.418278,-8.11624501e-16 302,3.581722 302,8 L302,24 L302,24 L-5.68434189e-14,24 L-5.68434189e-14,8 C-5.73845019e-14,3.581722 3.581722,8.11624501e-16 8,0 Z" id="Header" fill="#C5CFD6" blush:i="0.0.0.6.3"/><g id="Buttons" transform="translate(9.000000, 10.000000)" fill="#F2F2F2" blush:i="0.0.0.6.4"><circle id="buttons" cx="4" cy="4" r="4" blush:i="0.0.0.6.4.0"/><circle id="buttons" cx="16" cy="4" r="4" blush:i="0.0.0.6.4.1"/><circle id="buttons" cx="28" cy="4" r="4" blush:i="0.0.0.6.4.2"/></g><g id="Components" transform="translate(225.000000, 119.000000)" blush:i="0.0.0.6.5"><rect id="Background" fill="#FFF" x="0" y="0" width="63" height="174" rx="8" blush:i="0.0.0.6.5.0"/><g id="Rows" transform="translate(18.000000, 18.000000)" blush:i="0.0.0.6.5.1"><rect id="Data" fill="#C7D1D9" x="0" y="0" width="27" height="23" rx="4" blush:i="0.0.0.6.5.1.0"/><rect id="Data" fill="#AFB9C5" x="0" y="31" width="27" height="22" rx="4" blush:i="0.0.0.6.5.1.1"/><rect id="Data" fill="#C7D1D9" x="0" y="61" width="27" height="22" rx="4" blush:i="0.0.0.6.5.1.2"/><rect id="Data" fill="#C7D1D9" x="0" y="121" width="27" height="22" rx="4" blush:i="0.0.0.6.5.1.3"/><rect id="Data" fill="#C5CFD6" x="0" y="91" width="27" height="22" rx="4" blush:i="0.0.0.6.5.1.4"/></g></g><g id="Rows" transform="translate(16.000000, 44.000000)" blush:i="0.0.0.6.6"><g id="Row" blush:i="0.0.0.6.6.0"><rect id="Container" fill="#FFF" x="0" y="0" width="192" height="42" rx="4" blush:i="0.0.0.6.6.0.0"/><g id="Text-Stuff" transform="translate(9.000000, 12.600000)" fill="#C7D1D9" blush:i="0.0.0.6.6.0.1"><rect id="Label" x="0" y="0" width="134" height="6.3" rx="3" blush:i="0.0.0.6.6.0.1.0"/><rect id="Label" x="0" y="10.5" width="89.945" height="6.3" rx="3" blush:i="0.0.0.6.6.0.1.1"/></g><g id="Check" transform="translate(164.480916, 14.000000)" blush:i="0.0.0.6.6.0.2"><circle id="Background" fill="#C7D1D9" cx="7" cy="7" r="7" blush:i="0.0.0.6.6.0.2.0"/><circle id="Indicator" fill="#F2F2F2" cx="7" cy="7" r="3" blush:i="0.0.0.6.6.0.2.1"/></g></g><g id="Row" transform="translate(0.000000, 50.000000)" blush:i="0.0.0.6.6.1"><rect id="Container" fill="#FFF" x="0" y="0" width="192" height="34" rx="4" blush:i="0.0.0.6.6.1.0"/><g id="Text-Stuff" transform="translate(9.000000, 10.200000)" fill="#C7D1D9" blush:i="0.0.0.6.6.1.1"><rect id="Label" x="0" y="0" width="134" height="5.1" rx="2.55" blush:i="0.0.0.6.6.1.1.0"/><rect id="Label" x="0" y="8.5" width="89.945" height="5.1" rx="2.55" blush:i="0.0.0.6.6.1.1.1"/></g><g id="Check" transform="translate(164.480916, 10.000000)" blush:i="0.0.0.6.6.1.2"><circle id="Background" fill="#C7D1D9" cx="7" cy="7" r="7" blush:i="0.0.0.6.6.1.2.0"/><circle id="Indicator" fill="#F2F2F2" cx="7" cy="7" r="3" blush:i="0.0.0.6.6.1.2.1"/></g></g><g id="Row" transform="translate(0.000000, 92.000000)" blush:i="0.0.0.6.6.2"><rect id="Container" fill="#FFF" x="0" y="0" width="192" height="34" rx="4" blush:i="0.0.0.6.6.2.0"/><g id="Text-Stuff" transform="translate(9.000000, 10.200000)" fill="#C7D1D9" blush:i="0.0.0.6.6.2.1"><rect id="Label" x="0" y="0" width="134" height="5.1" rx="2.55" blush:i="0.0.0.6.6.2.1.0"/><rect id="Label" x="0" y="8.5" width="89.945" height="5.1" rx="2.55" blush:i="0.0.0.6.6.2.1.1"/></g><g id="Check" transform="translate(164.480916, 10.000000)" blush:i="0.0.0.6.6.2.2"><circle id="Background" fill="#C7D1D9" cx="7" cy="7" r="7" blush:i="0.0.0.6.6.2.2.0"/><circle id="Indicator" fill="#AFB9C5" cx="7" cy="7" r="3" blush:i="0.0.0.6.6.2.2.1"/></g></g><g id="Row" transform="translate(0.000000, 218.000000)" blush:i="0.0.0.6.6.3"><rect id="Container" fill="#FFF" x="0" y="0" width="192" height="34" rx="4" blush:i="0.0.0.6.6.3.0"/><g id="Text-Stuff" transform="translate(9.000000, 10.200000)" fill="#C7D1D9" blush:i="0.0.0.6.6.3.1"><rect id="Label" x="0" y="0" width="134" height="5.1" rx="2.55" blush:i="0.0.0.6.6.3.1.0"/><rect id="Label" x="0" y="8.5" width="89.945" height="5.1" rx="2.55" blush:i="0.0.0.6.6.3.1.1"/></g><g id="Check" transform="translate(164.480916, 10.000000)" blush:i="0.0.0.6.6.3.2"><circle id="Background" fill="#C7D1D9" cx="7" cy="7" r="7" blush:i="0.0.0.6.6.3.2.0"/><circle id="Indicator" fill="#F2F2F2" cx="7" cy="7" r="3" blush:i="0.0.0.6.6.3.2.1"/></g></g><g id="Row" transform="translate(0.000000, 176.000000)" blush:i="0.0.0.6.6.4"><rect id="Container" fill="#FFF" x="0" y="0" width="192" height="34" rx="4" blush:i="0.0.0.6.6.4.0"/><g id="Text-Stuff" transform="translate(9.000000, 10.200000)" fill="#C7D1D9" blush:i="0.0.0.6.6.4.1"><rect id="Label" x="0" y="0" width="134" height="5.1" rx="2.55" blush:i="0.0.0.6.6.4.1.0"/><rect id="Label" x="0" y="8.5" width="89.945" height="5.1" rx="2.55" blush:i="0.0.0.6.6.4.1.1"/></g><g id="Check" transform="translate(164.480916, 10.000000)" blush:i="0.0.0.6.6.4.2"><circle id="Background" fill="#C7D1D9" cx="7" cy="7" r="7" blush:i="0.0.0.6.6.4.2.0"/><circle id="Indicator" fill="#F2F2F2" cx="7" cy="7" r="3" blush:i="0.0.0.6.6.4.2.1"/></g></g><g id="Row" transform="translate(0.000000, 134.000000)" blush:i="0.0.0.6.6.5"><rect id="Container" fill="#FFF" x="0" y="0" width="192" height="34" rx="4" blush:i="0.0.0.6.6.5.0"/><g id="Text-Stuff" transform="translate(9.000000, 10.200000)" fill="#C7D1D9" blush:i="0.0.0.6.6.5.1"><rect id="Label" x="0" y="0" width="134" height="5.1" rx="2.55" blush:i="0.0.0.6.6.5.1.0"/><rect id="Label" x="0" y="8.5" width="89.945" height="5.1" rx="2.55" blush:i="0.0.0.6.6.5.1.1"/></g><g id="Check" transform="translate(164.480916, 10.000000)" blush:i="0.0.0.6.6.5.2"><circle id="Background" fill="#C7D1D9" cx="7" cy="7" r="7" blush:i="0.0.0.6.6.5.2.0"/><circle id="Indicator" fill="#F2F2F2" cx="7" cy="7" r="3" blush:i="0.0.0.6.6.5.2.1"/></g></g></g></g><g id="Plant" transform="translate(154.000000, 363.000000)" blush:i="0.0.0.7"><path d="M8.91484143,32.2190109 C25.6597822,60.4522572 45.1623154,87.7898019 56.8742785,118.658711 C56.4023156,115.020206 55.9018784,111.385471 55.3417418,107.755907 C52.3699916,88.5156129 48.6765895,69.415714 44.7954525,50.3392297 C42.8189469,40.6264104 40.728555,30.9487903 38.5845495,21.2719978 C37.4314368,16.0745893 36.2924623,10.8740139 35.1155892,5.68155465 C34.8305248,4.42303953 34.5855962,2.22637524 34.2287095,0 C45.6108781,37.5385798 56.5871265,75.1054651 64.6158625,113.546486 C65.6691257,118.59146 66.5660584,123.62747 67.3007691,128.654718 C67.5521043,127.507881 67.7993153,126.360849 68.0698984,125.217155 C71.3184741,111.506633 76.1914426,97.9052355 81.9935648,85.0856314 C84.7673233,78.9549889 87.953376,72.9586044 91.7046649,67.3711954 C94.0438986,63.8883165 99.560539,59.7481585 101.6945,56.181183 C90.0239597,77.6940898 85.8099444,104.611197 79.0713699,127.99958 C77.4266145,133.707015 75.7716418,139.405184 74.1500607,145.113391 C84.3121163,124.631226 100.078767,107.802639 122,100.509873 C95.4651928,118.13059 79.5493553,148.98887 68.8242669,180.549151 C68.7889267,180.923438 68.7469093,181.297729 68.7105874,181.672609 C71.8665798,175.652768 75.8420269,170.207841 81.2300161,166.394292 C92.7617961,158.230416 105.554308,160.608692 116.74055,167.61164 C107.961233,162.002807 92.0944482,167.110188 84.7074739,172.810877 C79.4192011,176.891685 74.8997731,182.366398 70.9751335,187.707514 C70.0347432,188.987818 68.7517717,190.481639 67.396388,192.075539 C65.4960843,204.472912 62.3993326,216.785318 58.0150014,229 C58.7385308,225.49401 58.2154043,219.886771 58.416049,217.273503 C58.4378887,216.990572 58.4556041,216.707446 58.4772479,216.425304 C57.8108023,219.09967 57.1669248,221.743638 56.5469832,224.344973 C57.7793387,219.38103 58.4491163,214.199088 58.9719655,208.963588 C59.1066272,206.713581 59.2379503,204.463576 59.3767363,202.213763 C59.3327498,197.943818 59.1577626,193.656999 58.8617961,189.363361 C57.8123518,185.190412 56.6373491,181.254303 55.6683307,177.980946 C52.1716009,166.169638 47.0455092,154.854106 40.7361997,144.297807 C34.9796443,134.664634 28.08905,125.938826 20.1342911,118.047335 C15.845957,113.794432 11.3580068,109.743895 6.93326287,105.637085 C5.33325022,104.152427 2.4733881,100.502017 -5.68434189e-14,98.5991347 C18.0133784,108.580049 36.5541184,119.377965 49.6949135,135.459456 C48.154306,129.513604 46.4809859,123.651893 44.7109107,117.907639 C35.7308822,88.7640624 24.3922276,58.5595609 8.91484143,32.2190109 Z" id="Fill-19" fill="#C7D1D9" blush:i="0.0.0.7.0"/><path d="M27,192 C27,224.5848 29.5654643,251 64,251 C98.4345357,251 101,224.5848 101,192" id="Base" fill="#C5CFD6" blush:i="0.0.0.7.1"/></g><g id="Graph" transform="translate(807.000000, 104.000000)" blush:i="0.0.0.8"><rect id="Value" fill="#C7D1D9" x="0" y="29" width="5" height="22" rx="2.5" blush:i="0.0.0.8.0"/><rect id="Value" fill="#C7D1D9" x="13" y="14" width="5" height="37" rx="2.5" blush:i="0.0.0.8.1"/><rect id="Value" fill="#C7D1D9" x="26" y="7" width="5" height="44" rx="2.5" blush:i="0.0.0.8.2"/><rect id="Value" fill="#C7D1D9" x="38" y="14" width="5" height="37" rx="2.5" blush:i="0.0.0.8.3"/><rect id="Value" fill="#C5CFD6" x="51" y="0" width="5" height="51" rx="2.5" blush:i="0.0.0.8.4"/></g><g id="Pie-Chart" transform="translate(134.000000, 348.500000) scale(-1, 1) translate(-134.000000, -348.500000) translate(116.000000, 331.000000)" blush:i="0.0.0.9"><path d="M36,17.9413722 C36,8.07541164 27.8982,0 18,0 L18,17.9413722 L30.3012,31 C33.8004,27.8073328 36,23.1237376 36,17.9413722 Z" id="Value" fill="#F2F2F2" blush:i="0.0.0.9.0"/><path d="M18.4151123,17 L5.68434189e-14,17 C5.68434189e-14,21.6989 1.94187359,26.1017 5.01167281,29.3012 C8.38808364,32.8004 13.1962695,35 18.4151123,35 C23.2223773,35 27.6226684,33.1019 31,30.1013 L18.4151123,17 Z" id="Value" fill="#AFB9C5" blush:i="0.0.0.9.1"/><path d="M5.68434189e-14,18 C5.68434189e-14,8.1018 8.1018,0 18,0 L18,18 L5.68434189e-14,18 Z M27,0 L19.8,16.2 L36,9 C34.398,4.8006 30.8007,1.602 27,0 Z" id="Value" fill="#C5CFD6" blush:i="0.0.0.9.2"/></g><g id="Chart" transform="translate(852.000000, 361.000000)" blush:i="0.0.0.10"><path d="M34.1350812,32.84145 C32.3982695,34.64345 29.9378997,35.775 27.2014353,35.775 C21.9433979,35.775 17.680933,31.62245 17.680933,26.5 C17.680933,21.37755 21.9433979,17.225 27.2014353,17.225 L27.2014353,0 C12.243366,0 0,11.92765 0,26.5 C0,41.07235 12.243366,53 27.2014353,53 C35.0585699,53 42.1595046,49.7617 47,44.6101 L34.1350812,32.84145 Z" id="Value" fill="#F2F2F2" blush:i="0.0.0.10.0"/><path d="M27,0 L27,17.55 C32.2191,17.55 36.45,21.7809 36.45,27 L54,27 C54,12.1527 41.8473,0 27,0 Z" id="Value" fill="#AFB9C5" blush:i="0.0.0.10.1"/><path d="M35.7555499,27 C35.7555499,29.9811105 34.2847665,32.6309865 32,34.3419195 L43.2399847,48 C49.7827252,43.1102843 54,35.5306239 54,27 L35.7555499,27 Z" id="Value" fill="#C5CFD6" blush:i="0.0.0.10.2"/></g><g id="Chart" transform="translate(726.000000, 90.000000)" blush:i="0.0.0.11"><path d="M26.8722979,25.40565 C25.5050207,26.79965 23.5681338,27.675 21.4138959,27.675 C17.2745898,27.675 13.9190323,24.46265 13.9190323,20.5 C13.9190323,16.53735 17.2745898,13.325 21.4138959,13.325 L21.4138959,0 C9.63839454,0 -5.68434189e-14,9.22705 -5.68434189e-14,20.5 C-5.68434189e-14,31.77295 9.63839454,41 21.4138959,41 C27.5992997,41 33.1893972,38.4949 37,34.5097 L26.8722979,25.40565 Z" id="Value" fill="#F2F2F2" blush:i="0.0.0.11.0"/><path d="M21,0 L21,13.65 C25.0593,13.65 28.35,16.9407 28.35,21 L42,21 C42,9.4521 32.5479,0 21,0 Z" id="Value" fill="#AFB9C5" blush:i="0.0.0.11.1"/><path d="M28.731309,21 C28.731309,23.2713223 27.6616484,25.2902754 26,26.5938434 L34.1745343,37 C38.932891,33.2745023 42,27.499523 42,21 L28.731309,21 Z" id="Value" fill="#C5CFD6" blush:i="0.0.0.11.2"/></g><g id="Image" transform="translate(149.000000, 66.000000)" blush:i="0.0.0.12"><path d="M43.007,46.9862978 C43.003,46.9962978 42.999,47.0062978 42.993,47.0182978 C42.999,47.0082978 43.007,46.9682978 43.007,46.9862978" id="Fill-35" fill="#C5CFD6" blush:i="0.0.0.12.0"/><path d="M42.9976864,47.0014952 C42.9976864,47.0034952 42.9956864,47.0074952 42.9956864,47.0114952 C42.9956864,47.0014952 43.0136864,46.9714952 42.9976864,47.0014952" id="Fill-37" fill="#C5CFD6" blush:i="0.0.0.12.1"/><path d="M43.0671431,46.8323017 C43.0531431,46.8723017 43.0351431,46.9103017 43.0191431,46.9503017 C43.0271431,46.9303017 43.0351431,46.9143017 43.0431431,46.8943017 C42.8351431,47.4143017 42.9671431,47.0763017 43.0671431,46.8323017" id="Fill-39" fill="#C5CFD6" blush:i="0.0.0.12.2"/><path d="M43.0223751,46.95275 C43.0143751,46.97075 43.0063751,46.99075 42.9983751,47.00875 C42.9403751,47.12075 43.0223751,46.95275 43.0223751,46.95275" id="Fill-41" fill="#C5CFD6" blush:i="0.0.0.12.3"/><polygon id="Fill-43" fill="#C5CFD6" points="43 47.001 43 47.001 43 46.999" blush:i="0.0.0.12.4"/><path d="M42.999,47.002 C42.999,47 42.999,47 43.001,46.998 C42.999,47 42.999,47 42.999,47.002" id="Fill-45" fill="#C5CFD6" blush:i="0.0.0.12.5"/><path d="M42.9895117,47.0163509 C42.9775117,47.0403509 43.0455117,46.9243509 42.9895117,47.0163509" id="Fill-47" fill="#C5CFD6" blush:i="0.0.0.12.6"/><path d="M42.998,47.002 L43.002,46.998 C43,47 43,47.002 42.998,47.002" id="Fill-49" fill="#C5CFD6" blush:i="0.0.0.12.7"/><rect id="Photo-Background" fill="#C7D1D9" x="0" y="0" width="86" height="57" rx="4" blush:i="0.0.0.12.8"/><polygon id="Mountains" fill="#AFB9C5" points="32.2 16 7 57 57.4 57" blush:i="0.0.0.12.9"/><polygon id="Mountains" fill="#C5CFD6" points="56.95 26.9333333 34.9 57 79 57" blush:i="0.0.0.12.10"/><circle id="Sun" fill="#FFF" cx="67" cy="19" r="8" blush:i="0.0.0.12.11"/></g><g id="Image" transform="translate(771.000000, 466.000000) scale(-1, 1) translate(-771.000000, -466.000000) translate(700.000000, 419.000000)" blush:i="0.0.0.13"><path d="M71.007,76.9862978 C71.003,76.9962978 70.999,77.0062978 70.993,77.0182978 C70.999,77.0082978 71.007,76.9682978 71.007,76.9862978" id="Fill-35" fill="#C5CFD6" blush:i="0.0.0.13.0"/><path d="M70.9976864,77.0014952 C70.9976864,77.0034952 70.9956864,77.0074952 70.9956864,77.0114952 C70.9956864,77.0014952 71.0136864,76.9714952 70.9976864,77.0014952" id="Fill-37" fill="#C5CFD6" blush:i="0.0.0.13.1"/><path d="M71.0671431,76.8323017 C71.0531431,76.8723017 71.0351431,76.9103017 71.0191431,76.9503017 C71.0271431,76.9303017 71.0351431,76.9143017 71.0431431,76.8943017 C70.8351431,77.4143017 70.9671431,77.0763017 71.0671431,76.8323017" id="Fill-39" fill="#C5CFD6" blush:i="0.0.0.13.2"/><path d="M71.0223751,76.95275 C71.0143751,76.97075 71.0063751,76.99075 70.9983751,77.00875 C70.9403751,77.12075 71.0223751,76.95275 71.0223751,76.95275" id="Fill-41" fill="#C5CFD6" blush:i="0.0.0.13.3"/><polygon id="Fill-43" fill="#C5CFD6" points="71 77.001 71 77.001 71 76.999" blush:i="0.0.0.13.4"/><path d="M70.999,77.002 C70.999,77 70.999,77 71.001,76.998 C70.999,77 70.999,77 70.999,77.002" id="Fill-45" fill="#C5CFD6" blush:i="0.0.0.13.5"/><path d="M70.9895117,77.0163509 C70.9775117,77.0403509 71.0455117,76.9243509 70.9895117,77.0163509" id="Fill-47" fill="#C5CFD6" blush:i="0.0.0.13.6"/><path d="M70.998,77.002 L71.002,76.998 C71,77 71,77.002 70.998,77.002" id="Fill-49" fill="#C5CFD6" blush:i="0.0.0.13.7"/><rect id="Photo-Background" fill="#C7D1D9" x="0" y="0" width="142" height="94" rx="4" blush:i="0.0.0.13.8"/><polygon id="Mountains" fill="#AFB9C5" points="52.7257937 27 11.6707937 94 93.7807937 94" blush:i="0.0.0.13.9"/><polygon id="Mountains" fill="#C5CFD6" points="95.0557937 44.9464286 58.7607937 94 131.350794 94" blush:i="0.0.0.13.10"/><circle id="Sun" fill="#FFF" cx="110.5" cy="31.5" r="13.5" blush:i="0.0.0.13.11"/></g></g></g><g transform="translate(728.000000, 427.000000) scale(-1, 1) translate(-728.000000, -427.000000) translate(578.000000, 214.000000) scale(1 1)" blush:has-customizable-colors="true" blush:width="300" blush:height="426" id="Master/Pose/Standing" blush:component="Master/Pose/Standing" blush:i="0.1"><g id="Master/Pose/Standing" stroke="none" stroke-width="1" fill="none" fill-rule="evenodd" blush:has-customizable-colors="true" blush:i="0.1.0"><g id="Head/Front" transform="translate(82.000000, 0.000000) scale(1 1)" blush:width="136" blush:height="104" blush:component="Head/Front" blush:i="0.1.0.0"><g id="Head/Front/Afro" stroke="none" stroke-width="1" fill="none" fill-rule="evenodd" blush:i="0.1.0.0.0"><path d="M61,77.7068588 C72.4289379,77.7068588 76.5854974,64.0240838 83.0786187,56.5153483 C87.7243138,51.143002 95.6530795,52.7449442 98,45.2237762 C103.901542,26.3111237 88.1061086,13 67.5,13 C46.8938914,13 33,24.6742524 30,42.2237762 C27,59.7733 40.3938914,77.7068588 61,77.7068588 Z" id="Hair-Back" fill="#181658" blush:color="Hair-500" blush:i="0.1.0.0.0.0"/><g id="Head" transform="translate(54.000000, 31.000000)" fill="#b28b67" blush:color="Skin-500" blush:i="0.1.0.0.0.1"><path d="M38.1433414,9.13393292 C43.9381521,19.9350547 43.249578,47.3329958 35.7603014,49.2634576 C32.773664,50.0333035 26.4113241,48.1475566 19.935865,44.2446031 L24,73 L0,73 L8.26160177,34.4893378 C3.65406109,29.0807313 0.535660132,22.452516 1.05677633,15.0254539 C2.55833022,-6.37502057 32.3485306,-1.66718886 38.1433414,9.13393292 Z" id="SKIN" blush:i="0.1.0.0.0.1.0"/></g><path d="M93.5831606,40.1945268 C88.9933309,41.0561444 79.749454,45.438095 72.3793005,51.7237673 C71.507977,51.2620835 70.5087281,51 69.4466684,51 C66.0464589,51 63.2900445,53.6862915 63.2900445,57 C63.2900445,58.352507 63.7492372,59.6004922 64.5239753,60.6039629 C63.065081,63.0086601 62.0695654,65.5348236 61.7432388,68.1317726 C56.6870351,68.1317726 38.2335803,49 56.6167901,31 C75,13 101.566014,38.6959598 93.5831606,40.1945268 Z" id="Hair" fill="#181658" blush:color="Hair-500" blush:i="0.1.0.0.0.2"/></g></g><g id="Bottom/Standing" transform="translate(0.000000, 187.000000) scale(1 1)" blush:width="300" blush:height="239" blush:component="Bottom/Standing" blush:i="0.1.0.1"><g id="Bottom/Standing/Skinny Jeans" stroke="none" stroke-width="1" fill="none" fill-rule="evenodd" blush:i="0.1.0.1.0"><polygon id="Leg" fill="#1820bf" points="128 9.9475983e-14 164.254962 127.226909 190.706957 221 210 221 181.890974 9.9475983e-14" blush:color="Bottom-700" blush:i="0.1.0.1.0.0"/><path d="M118.304342,0 C117.465768,65.5742244 114.606247,101.340188 113.725779,107.297892 C112.845311,113.255595 99.5321718,151.156298 73.7863613,221 L93.7726468,221 C126.549033,153.996902 144.845651,116.096199 148.662499,107.297892 C152.479348,98.4995844 164.258515,62.7336205 182,0 L118.304342,0 Z" id="Leg" fill="#2b44ff" blush:color="Bottom-500" blush:i="0.1.0.1.0.1"/><path d="M72,239 L73,218 L94,218 C103.957603,225 116.957603,230.666667 133,235 L133,239 L95,239 L82,237 L82,239 L72,239 Z" id="Shoe" fill="#191847" blush:i="0.1.0.1.0.2"/><path d="M188,239 L189,218 L210,218 C219.957603,225 232.957603,230.666667 249,235 L249,239 L211,239 L198,237 L198,239 L188,239 Z" id="Shoe" fill="#191847" blush:i="0.1.0.1.0.3"/></g></g><g id="Body" transform="translate(22.000000, 82.000000) scale(1 1)" blush:width="256" blush:height="187" blush:component="Body" blush:i="0.1.0.2"><g id="Body/Pointing Up" stroke="none" stroke-width="1" fill="none" fill-rule="evenodd" blush:i="0.1.0.2.0"><path d="M188.106855,69.1681252 L220.005126,92.5917238 C228.656594,94.9262021 235.884616,97.8306872 241.689192,101.305179 C243.060333,102.554584 244.717486,105.084837 239.031031,104.647546 C233.344575,104.210255 227.34361,104.006032 226.55899,105.945594 C225.774369,107.885156 229.215504,110.204659 227.629445,112.821636 C226.572072,114.566288 221.576617,110.191639 212.64308,99.6976902 L181.055424,86.5990869 L188.106855,69.1681252 Z M250.438302,-16.9769837 C246.666871,-12.6987465 242.892301,-8.02906778 243.969107,-6.23518449 C245.045914,-4.44130119 248.969279,-5.79360164 250.104775,-2.95198204 C250.861773,-1.05756897 244.361683,0.299249329 230.604506,1.11847287 L201.133571,18.4625605 L191.456243,2.34082269 L229.360019,-9.03759567 C236.431,-14.5420411 243.100557,-18.5666331 249.36869,-21.1113719 C251.191683,-21.4545034 254.209733,-21.2552209 250.438302,-16.9769837 Z" id="SKIN" fill="#b28b67" blush:color="Skin-500" blush:i="0.1.0.2.0.0"/><path d="M126.984936,15.649923 C152.146796,42.4399518 182.83581,59.9216266 224.690767,75.4277614 L215.396057,94.0136202 C172.211363,89.9419212 149.124049,86.6900124 131.024869,59.8586619 C126.482342,53.1245369 118.360034,29.953677 113.494175,17.9210142 L126.984936,15.649923 Z" id="Coat-Back" fill="#28aa4d" transform="translate(169.092471, 54.831772) rotate(15.000000) translate(-169.092471, -54.831772)" blush:color="Top-700" blush:i="0.1.0.2.0.1"/><path d="M90,114 L167,114 C149.558211,60.8053811 140.648283,24.2959016 140.270216,4.47156148 C140.250941,3.46089747 138.384379,1.67996472 137.55857,1.91319372 C131.519523,3.61877223 125.057267,2.98104099 118.1718,0 C99.917485,29.3584068 93.6048263,65.5045499 90,114 Z" id="Shirt" fill="#F2F2F2" blush:i="0.1.0.2.0.2"/><path d="M223.922675,-9 L228,11.3734803 C196.786296,31.4485846 165.179799,46.9996172 137.484777,44.7906365 C149.512447,96.376906 148.958039,138.605966 122.407472,138.605966 L122.407472,138.605966 L81.3511268,138.605966 C74.8304314,94.783947 91.9680949,34.0236152 107.855955,3.37659428 C108.462665,2.20627687 109.75441,-3.65929509e-13 112.797001,-3.65929509e-13 L112.797001,-3.65929509e-13 L124.726763,-3.65929509e-13 C124.732077,0.0159997287 124.73739,0.0319994436 124.742703,0.047999144 C146.814341,0.228141895 182.62406,4.25863713 223.922675,-9 Z" id="Coat-Front" fill="#43d26c" blush:color="Top-500" blush:i="0.1.0.2.0.3"/></g></g></g></g><g transform="translate(378.000000, 214.000000) scale(1 1)" blush:has-customizable-colors="true" blush:width="300" blush:height="426" id="Master/Pose/Sitting" blush:component="Master/Pose/Sitting" blush:i="0.2"><g id="Master/Pose/Sitting" stroke="none" stroke-width="1" fill="none" fill-rule="evenodd" blush:has-customizable-colors="true" blush:i="0.2.0"><g id="Head/Front" transform="translate(38.000000, 73.000000) scale(1 1)" blush:width="136" blush:height="104" blush:component="Head/Front" blush:i="0.2.0.0"><defs blush:i="0.2.0.0.0"><path d="M59.5761618,12.9456954 C59.3658913,11.6405875 59.7821901,11.0000348 54.5346912,7.32322248 C49.2871923,3.64641021 40.8148726,-0.690083867 32.2816409,1.19718054 C21.2074934,3.64641021 16.8090436,10.95123 12.5386337,14.5025253 C8.68897397,17.7040264 4.82639368,18.0773849 2.53730321,22.0499243 C0.248212735,26.0224636 -0.969669172,37.4512721 1.02080294,41.9950076 C3.76655586,48.2628548 9.18121558,49.9508389 13.133879,51.7566178 C19.9127597,54.8535575 29.4945554,51.5827766 29.7266676,51.0409656 C31.5221564,46.8498232 41.186894,35.0268608 47,30.0596268 C51.2746625,26.4069756 60.5630562,19.0711556 59.5761618,12.9456954 Z" id="headfrontturban-1-path-1" blush:i="0.2.0.0.0.0"/></defs><g id="Head/Front/Turban 1" stroke="none" stroke-width="1" fill="none" fill-rule="evenodd" blush:i="0.2.0.0.1"><g id="Head" transform="translate(54.000000, 31.000000)" fill="#d4a181" blush:color="Skin-500" blush:i="0.2.0.0.1.0"><path d="M38.1433414,9.13393292 C43.9381521,19.9350547 43.249578,47.3329958 35.7603014,49.2634576 C32.773664,50.0333035 26.4113241,48.1475566 19.935865,44.2446031 L24,73 L0,73 L8.26160177,34.4893378 C3.65406109,29.0807313 0.535660132,22.452516 1.05677633,15.0254539 C2.55833022,-6.37502057 32.3485306,-1.66718886 38.1433414,9.13393292 Z" id="SKIN" blush:i="0.2.0.0.1.0.0"/></g><g id="Turban" transform="translate(31.000000, 23.000000)" blush:i="0.2.0.0.1.1"><mask id="headfrontturban-1-mask-2" fill="#fff" blush:i="0.2.0.0.1.1.0"><use xlink:href="#headfrontturban-1-path-1" blush:i="0.2.0.0.1.1.0.0"/></mask><use fill="#5C63AB" xlink:href="#headfrontturban-1-path-1" blush:i="0.2.0.0.1.1.1"/><path d="M7.99840897,16.3421428 C10.9512397,28.5681061 18.6184367,40.1207252 31,51 C16.673342,42.3522376 7.67334197,31.1925804 4,17.5210284 L7.99840897,16.3421428 Z M12.4570236,12 C14.25711,23.3796891 18.9826226,33.7873661 26.6335616,43.223031 C17.7122912,36.3009755 11.8344374,26.6221332 9,14.1865041 L12.4570236,12 Z" id="SHade" fill-opacity=".2" fill="#000" mask="url(#headfrontturban-1-mask-2)" blush:i="0.2.0.0.1.1.2"/></g></g></g><g id="Bottom/Sitting" transform="translate(-44.000000, 260.000000) scale(1 1)" blush:width="300" blush:height="239" blush:component="Bottom/Sitting" blush:i="0.2.0.1"><g id="Bottom/Sitting/Torqusie baggy pant" stroke="none" stroke-width="1" fill="none" fill-rule="evenodd" blush:i="0.2.0.1.0"><g id="Objects/Seat" transform="translate(10.000000, 42.000000) scale(1 1)" blush:width="232" blush:height="124" blush:component="Objects/Seat" blush:i="0.2.0.1.0.0"><g id="Objects/Seat/Ball" stroke="none" stroke-width="1" fill="none" fill-rule="evenodd" blush:i="0.2.0.1.0.0.0"><ellipse id="Ballsy-Ball" fill="#C5CFD6" cx="116" cy="58.5" rx="77" ry="73.5" blush:i="0.2.0.1.0.0.0.0"/></g></g><g id="Group-10" transform="translate(112.000000, -1.000000)" blush:i="0.2.0.1.0.1"><path d="M68.4377,139.5336 C68.4377,139.5336 80.9457,109.5316 85.1507,111.0826 C88.8147,112.4326 106.2817,121.9966 105.5927,123.8826 C104.8707,125.8576 100.3287,131.7406 100.3287,131.7406 C100.3287,131.7406 110.5017,140.2396 115.9337,147.4036 C118.7967,151.1796 122.5007,159.9466 119.5167,161.5546 C116.5317,163.1626 64.7727,145.9426 68.4377,139.5336" id="Fill-1" fill="#C7D1D9" blush:i="0.2.0.1.0.1.0"/><path d="M132.021498,164.676214 C131.816048,155.134172 131.930715,138.886797 135.0797,138.5961 C138.9687,138.2381 158.8517,139.3471 159.0417,141.3451 C159.2407,143.4401 161.6747,152.7041 161.6747,152.7041 C161.6747,152.7041 175.5167,153.9941 183.5037,158.1201 C187.7137,160.2951 189.8327,166.6131 187.8317,169.3491 C185.8307,172.0851 131.7017,178.8341 132.2487,171.4721 C132.2487,171.4721 132.107229,168.657938 132.021498,164.676214 Z" id="Fill-3" fill="#C7D1D9" blush:i="0.2.0.1.0.1.1"/><path d="M74.1841473,120.5 C80.1163136,132.710796 94.5,133.781078 103.638385,133.781078 C107.130778,133.781078 121.598955,103.814747 124.002329,99.8681006 C137.07585,78.3997104 153.2639,51.5728 153.2639,51.5728 C153.2639,51.5728 126.0209,33.8648 106.9499,40.4028 C106.9499,40.4028 68.251981,108.289204 74.1841473,120.5 Z" id="Fill-5" fill="#191847" blush:color="Bottom-700" blush:i="0.2.0.1.0.1.2"/><g id="Group-9" transform="translate(0.000000, 0.802000)" fill="#393f82" blush:color="Bottom-500" blush:i="0.2.0.1.0.1.3"><path d="M0.0681,0.1974 C0.0681,0.1974 -0.612227597,40.8041657 20.5871,48.5914 C41.7864276,56.3786343 95.2829547,62.595829 127.17212,54.4071974 C120.62026,76.3286193 124.87299,147.161669 131.17212,158.862955 C133.166363,162.56747 156.347258,155.877823 164.207154,152.014187 C172.067049,148.150551 185.9621,30.9764 170.8391,21.0754 C155.7161,11.1744 59.4551,0.1974 59.4551,0.1974 L0.0681,0.1974 Z" id="Fill-7" blush:i="0.2.0.1.0.1.3.0"/></g></g></g></g><g id="Body" transform="translate(-22.000000, 155.000000) scale(1 1)" blush:width="256" blush:height="187" blush:component="Body" blush:i="0.2.0.2"><g id="Body/Long Sleeve" stroke="none" stroke-width="1" fill="none" fill-rule="evenodd" blush:i="0.2.0.2.0"><path d="M67.9697919,74.4496834 L89.8671837,74.5318631 C65.8560993,128.56567 53.3363474,156.856914 52.3079281,159.405597 C49.9939846,165.140133 54.8906002,173.873732 56.9845874,178.567103 C50.1645409,181.61887 50.8912241,170.316929 42.2879189,174.319492 C34.4352209,177.972846 28.4616931,184.59248 19.3890352,178.994371 C18.2736052,178.306117 17.0512757,175.714714 20.0045784,173.68967 C27.3623323,168.644547 37.9653015,159.814672 39.3979297,156.908251 C41.3515741,152.944826 50.8755281,125.458637 67.9697919,74.4496834 L67.9697919,74.4496834 Z M253.693154,55.3151968 C249.269111,59.00334 244.780296,63.0831966 245.568527,65.0514942 C246.356757,67.0197919 250.471061,66.2874533 251.152638,69.3148625 C251.607023,71.3331352 244.929759,71.6610844 231.120845,70.2987101 L199.083874,83 L192,65.3107899 L231.482876,59.9251648 C239.381053,55.5320264 246.646993,52.5579486 253.280695,51.0029313 C255.147488,50.9484265 258.117196,51.6270536 253.693154,55.3151968 Z" id="SKIN" fill="#ba8b72" blush:color="Skin-700" blush:i="0.2.0.2.0.0"/><path d="M123.473568,9.66927317 L140.652814,9.31280705 C148.188654,47.0006412 173.203746,69.0336905 223.790464,56.4079457 L234.893349,104.819132 C187.489073,115.210412 143.760505,99.6935282 130.595778,48.4746485 C127.187846,35.2156986 124.201379,21.3681777 123.473568,9.66927317 Z" id="Clothes-Back" fill="#e87613" transform="translate(179.183459, 58.591470) rotate(5.000000) translate(-179.183459, -58.591470)" blush:color="Top-700" blush:i="0.2.0.2.0.1"/><path d="M119.477154,0 L119.490636,0.016 L145.467604,5.96527657 C145.467604,50.1976331 159.4168,78.578721 166.778942,111.015796 L167,112 L96.8436466,112.000086 C95.8553764,123.350958 95.2484879,135.017596 94.9322404,147 L94.9322404,147 L42.4016357,147 C54.3053653,83.6639633 79.4301113,34.6639633 117.775873,0 L117.775873,0 L119.477154,0 Z" id="Clothes" fill="#ffa434" blush:color="Top-500" blush:i="0.2.0.2.0.2"/><path d="M107.912412,48.2598889 C106.10448,76.1008541 107.167824,97.3475578 111.102445,112 L111.102445,112 L96.8437337,111.999086 C98.758489,90.0075171 102.104834,69.2012293 107.54268,49.5802231 Z" id="Shade" fill-opacity=".1" fill="#000" blush:i="0.2.0.2.0.3"/></g></g></g></g><g transform="translate(170.000000, 214.000000) scale(1 1)" blush:has-customizable-colors="true" blush:width="300" blush:height="426" id="Master/Pose/Standing" blush:component="Master/Pose/Standing" blush:i="0.3"><g id="Master/Pose/Standing" stroke="none" stroke-width="1" fill="none" fill-rule="evenodd" blush:has-customizable-colors="true" blush:i="0.3.0"><g id="Head/Front" transform="translate(82.000000, 0.000000) scale(1 1)" blush:width="136" blush:height="104" blush:component="Head/Front" blush:i="0.3.0.0"><g id="Head/Front/Chongo" stroke="none" stroke-width="1" fill="none" fill-rule="evenodd" blush:i="0.3.0.0.0"><g id="Head" transform="translate(54.000000, 31.000000)" fill="#915b3c" blush:color="Skin-500" blush:i="0.3.0.0.0.0"><path d="M38.1433414,9.13393292 C43.9381521,19.9350547 43.249578,47.3329958 35.7603014,49.2634576 C32.773664,50.0333035 26.4113241,48.1475566 19.935865,44.2446031 L24,73 L0,73 L8.26160177,34.4893378 C3.65406109,29.0807313 0.535660132,22.452516 1.05677633,15.0254539 C2.55833022,-6.37502057 32.3485306,-1.66718886 38.1433414,9.13393292 Z" id="SKIN" blush:i="0.3.0.0.0.0.0"/></g><path d="M82.6634951,28.3699763 C79.3840534,27.3699763 74.6234565,27.0308443 72.6208149,27.2602642 C73.7600087,24.5308439 74.2120576,21.4899413 73.8435286,18.5290858 C73.4853344,15.6520661 72.1997702,13.2023672 71.0108165,10.6353788 C70.4627695,9.45216518 69.8416903,8.27540043 68.9156982,7.37037661 C67.972405,6.44834378 66.7783223,5.83972796 65.5262119,5.54936581 C64.2448581,5.2521517 62.9050174,5.27689939 61.6216732,5.54662502 C61.0539519,5.66592985 60.5445644,5.92549845 59.9877902,6.0697928 C59.4176191,6.21763405 59.141031,5.86076752 58.7271824,5.50212755 C57.7298424,4.63797369 56.2677456,4.21137833 55.0059895,4.0587004 C53.5903607,3.88748186 52.1214506,4.10102137 50.7713517,4.56639079 C49.457233,5.01942668 48.1947879,5.75508602 47.2446815,6.82681415 C46.8216464,7.30387223 46.4376536,7.8468704 46.188089,8.44637714 C46.0857368,8.69240304 46.0688185,8.83814839 45.8233112,8.9282719 C45.5962532,9.01170466 45.3306889,9.014123 45.0963584,9.0935252 C42.8305256,9.86094542 40.8932607,11.6116631 39.8384289,13.8595111 C39.2230147,15.1708968 38.9314987,17.4797836 39.0113441,20.0676663 C39.0911894,22.655549 41.4279109,29.4080735 43.613439,31.8710732 C45.5642539,34.0695065 48.4317213,35.5202692 51.1990566,36.1553256 C49.36223,38.2548487 48.1395162,40.8784262 47.2353419,43.5466625 C46.2532361,46.4450442 45.6454006,49.4566043 45.4209456,52.525076 C45.2077438,55.4404668 45.187993,58.5235291 45.8714634,61.3766879 C46.5108389,64.0448435 47.8781623,66.233684 50.1607604,67.6222954 C51.2063292,68.2583997 52.331284,68.7362639 53.4627459,69.1730163 C54.5778253,69.6034004 55.6962731,70.021854 56.8643276,70.2633656 C59.0749653,70.7202709 61.6221325,70.641836 63.3249903,68.8822511 C63.9387204,68.2479202 64.6136933,67.450835 65.0614552,66.675918 C65.2224473,66.3972445 65.3195173,66.2149822 65.1239229,65.9425963 C64.8895924,65.6163621 64.5105756,65.3663863 64.2095669,65.1111707 C62.493006,63.6560549 61.4304424,61.7134822 61.1625814,59.4049338 C60.8908162,57.0626093 61.5200101,54.03928 63.7973259,53.0170472 C66.6084499,51.7551569 69.7042766,53.2035819 72.2028323,54.5537417 C73.264707,50.805958 75.4450295,47.4314855 78.8633764,45.7123675 C82.6451998,43.8105035 86.9847925,43.5879355 90.871188,41.9561196 C91.8839153,41.5308947 92.9153983,41.0481938 93.6610301,40.1817828 C93.9726032,39.8196765 94.3381465,39.3499541 94.4625461,38.871042 C94.625988,38.2419509 94.220254,37.7145107 93.9068437,37.2240711 C92.2450186,34.623629 85.9429367,29.3699763 82.6634951,28.3699763 Z" id="hair" fill="#4a312c" blush:color="Hair-500" blush:i="0.3.0.0.0.1"/></g></g><g id="Bottom/Standing" transform="translate(0.000000, 187.000000) scale(1 1)" blush:width="300" blush:height="239" blush:component="Bottom/Standing" blush:i="0.3.0.1"><g id="Bottom/Standing/Sweatpants" stroke="none" stroke-width="1" fill="none" fill-rule="evenodd" blush:i="0.3.0.1.0"><polygon id="SKIN" fill="#915b3c" points="128 9.9475983e-14 164.630838 126.226909 181.860154 221 199.153197 221 181.890974 9.9475983e-14" blush:color="Skin-500" blush:i="0.3.0.1.0.0"/><polygon id="Shadow" fill-opacity=".1" fill="#000" points="128 9.9475983e-14 164.630838 126.226909 181.860154 221 199.153197 221 181.890974 9.9475983e-14" blush:i="0.3.0.1.0.1"/><path d="M111.537727,0 C114.093705,65.5742244 113.085665,101.340188 112.513606,107.297892 C111.941548,113.255595 108.69393,153.156298 86.5636874,223 L104.549973,223 C133.85784,155.996902 144.088936,116.096199 147.450326,107.297892 C150.811717,98.4995844 160.739403,62.7336205 175.233385,0 L111.537727,0 Z" id="SKIN" fill="#915b3c" blush:color="Skin-500" blush:i="0.3.0.1.0.2"/><path d="M127.213639,1.13686838e-13 C136.741891,43.4350253 153.221683,112.768359 176.653017,208 L201.946059,208 C203.814239,110.253828 195.86709,45.9204947 182.104613,1.13686838e-13 L127.213639,1.13686838e-13 Z" id="Pant" fill="#e87613" blush:color="Bottom-700" blush:i="0.3.0.1.0.3"/><path d="M111.409919,0 C113.913164,65.5742244 107.425844,130.177256 87.3305078,209.020958 L114.316793,209.020958 C143.678541,143.017859 164.723052,78.7336205 179.105577,0 L111.409919,0 Z" id="Pant" fill="#ffa434" blush:color="Bottom-500" blush:i="0.3.0.1.0.4"/><g id="Left" transform="translate(84.000000, 218.000000)" fill="#191847" blush:i="0.3.0.1.0.5"><path d="M0,18 L0.99242267,2 C6.8029179,3.69942511 14.0806841,3.03275844 22.8257214,0 C32.2287535,6.660617 44.0659431,11.2086712 58.3372903,13.6441626 C59.4261013,13.829999 60.1581292,14.8632891 59.9723163,15.9521041 C59.9602834,16.0226139 59.9444765,16.0924273 59.9249637,16.1612435 L58.5529375,21 L58.5529375,21 L22.8257214,21 L1.98484534,21 L0,18 Z" id="Shoe" blush:i="0.3.0.1.0.5.0"/></g><g id="Right" transform="translate(178.000000, 218.000000)" fill="#191847" blush:i="0.3.0.1.0.6"><path d="M0,18 L0.99242267,2 C6.8029179,3.69942511 14.0806841,3.03275844 22.8257214,0 C32.2287535,6.660617 44.0659431,11.2086712 58.3372903,13.6441626 C59.4261013,13.829999 60.1581292,14.8632891 59.9723163,15.9521041 C59.9602834,16.0226139 59.9444765,16.0924273 59.9249637,16.1612435 L58.5529375,21 L58.5529375,21 L22.8257214,21 L1.98484534,21 L0,18 Z" id="Shoe" blush:i="0.3.0.1.0.6.0"/></g></g></g><g id="Body" transform="translate(22.000000, 82.000000) scale(1 1)" blush:width="256" blush:height="187" blush:component="Body" blush:i="0.3.0.2"><defs blush:i="0.3.0.2.0"><path d="M8.50486985,11.3641526 C20.5328809,13.1391664 36.9471722,13.1391664 55.7504485,5 L60.0903301,21.0261575 C46.4526921,30.855406 28.3595972,37.8403661 13.9345776,35.1385465 C2.56686704,33.0093637 -1.08139191,18.2733952 8.50486985,11.3641526 Z" id="bodypointing-forward-path-1" blush:i="0.3.0.2.0.0"/><path d="M65.5437498,1.98951966e-13 C67.0746794,19.6687489 74.7801887,41.3453869 81.1040065,62.7603513 C94.0105334,65.9801967 115.654578,62.1842978 146.035933,51.3734208 C153.571674,66.9635189 157.055257,78.0780631 156.486685,84.7170535 C130.420927,98.3327976 108.0808,104.402393 89.6761367,104.801687 C90.2685109,115.717837 88.9396772,126.110233 84.4739328,135.605966 C75.2946804,155.124265 21.5450578,137.048144 3.47278757,140.605966 C-7.84459943,103.85132 14.0379108,88.9143806 14.0555178,65.3966157 C14.0747993,39.6421572 34.7544101,1.98951966e-13 37.7970006,1.98951966e-13 L37.7970006,1.98951966e-13 Z" id="bodypointing-forward-path-3" blush:i="0.3.0.2.0.1"/></defs><g id="Body/Pointing Forward" stroke="none" stroke-width="1" fill="none" fill-rule="evenodd" blush:i="0.3.0.2.1"><path d="M238.556381,46.4077826 C242.889175,45.5157805 253.464286,37.6506887 255.286431,39.2475996 C257.982176,41.6101262 255.578484,48.864452 252.746364,52.4730906 C247.453134,59.2176317 243.070569,61.5240612 232.238377,64.5443446 C226.574749,66.1235046 220.451364,69.288795 213.868224,74.0402157 L213,58.7398397 L228.246523,50.3642065 C230.385826,42.2239107 232.943102,38.1282526 235.918351,38.0772323 C238.203961,37.0137608 234.223587,47.2997848 238.556381,46.4077826 Z M212.314801,11.541507 C209.515281,16.510379 206.794075,21.8627914 208.22032,23.3935933 C209.646565,24.9243953 213.203036,22.7859324 214.904525,25.3293729 C216.038851,27.0249998 209.962902,29.703613 196.676679,33.3652124 L171.455792,56.4576422 L158.638039,42.7002327 L193.347821,23.6898218 C199.119845,16.8355222 204.806897,11.5121983 210.408976,7.71984988 C212.120791,7.00519513 215.114322,6.57263502 212.314801,11.541507 Z" id="SKIN" fill="#784931" blush:color="Skin-700" blush:i="0.3.0.2.1.0"/><g id="Group-3" transform="translate(134.353117, 23.386150)" blush:i="0.3.0.2.1.1"><mask id="bodypointing-forward-mask-2" fill="#fff" blush:i="0.3.0.2.1.1.0"><use xlink:href="#bodypointing-forward-path-1" blush:i="0.3.0.2.1.1.0.0"/></mask><use id="Mask" fill="#c21b15" transform="translate(31.545165, 20.361910) rotate(-9.000000) translate(-31.545165, -20.361910)" xlink:href="#bodypointing-forward-path-1" blush:color="Top-700" blush:i="0.3.0.2.1.1.1"/></g><g id="Group-27" transform="translate(77.000000, -0.000000)" blush:i="0.3.0.2.1.2"><mask id="bodypointing-forward-mask-4" fill="#fff" blush:i="0.3.0.2.1.2.0"><use xlink:href="#bodypointing-forward-path-3" blush:i="0.3.0.2.1.2.0.0"/></mask><use id="Mask" fill="#ff4133" xlink:href="#bodypointing-forward-path-3" blush:color="Top-500" blush:i="0.3.0.2.1.2.1"/></g></g></g></g></g></g></svg>