<svg viewBox="-1.705029939068254 81.75 372.7271330488682 403.29999999999995" xmlns="http://www.w3.org/2000/svg" xmlns:xlink="http://www.w3.org/1999/xlink" xmlns:blush="http://design.blush" overflow="visible" width="372.7271330488682px" height="403.29999999999995px"><defs><path d="M170,387 C263.888407,387 340,310.980246 340,217.205128 L340,0 L0,0 L0,217.205128 C0,310.980246 76.1115925,387 170,387 Z" id="mastercompositionspace-path-1"/></defs><g id="Master/Composition/Space" stroke="none" stroke-width="1" fill="none" fill-rule="evenodd" blush:has-customizable-colors="true" blush:i="0"><circle id="Oval" fill="#FFA9C4" cx="42" cy="371" r="42" blush:i="0.0"/><ellipse id="Oval" fill="#AED5F8" cx="201" cy="275.5" rx="170" ry="169.5" blush:i="0.1"/><polygon id="Polygon" fill="#7A8DFF" points="71 124 104 157 71 190 38 157" blush:i="0.2"/><g id="Character-And-Mask" transform="translate(31.000000, 58.000000)" blush:i="0.3"><mask id="mastercompositionspace-mask-2" fill="#fff" blush:i="0.3.0"><use xlink:href="#mastercompositionspace-path-1" blush:i="0.3.0.0"/></mask><g id="Mask" opacity=".278" blush:i="0.3.1"/><g id="" mask="url(#mastercompositionspace-mask-2)" blush:i="0.3.2"><g transform="translate(129.459178, 86.342688) rotate(-27.000000) translate(-129.459178, -86.342688) translate(26.459178, 11.342688) scale(1.5147058823529411 1.4423076923076923)" blush:width="206" blush:height="150" id="Head/Front" blush:component="Head/Front" blush:i="0.3.2.0"><g id="Head/Front/Top" stroke="none" stroke-width="1" fill="none" fill-rule="evenodd" blush:i="0.3.2.0.0"><g id="Head" transform="translate(54.000000, 31.000000)" fill="#d4a181" blush:color="Skin-500" blush:i="0.3.2.0.0.0"><path d="M38.1433414,9.13393292 C43.9381521,19.9350547 43.249578,47.3329958 35.7603014,49.2634576 C32.773664,50.0333035 26.4113241,48.1475566 19.935865,44.2446031 L24,73 L0,73 L8.26160177,34.4893378 C3.65406109,29.0807313 0.535660132,22.452516 1.05677633,15.0254539 C2.55833022,-6.37502057 32.3485306,-1.66718886 38.1433414,9.13393292 Z" id="SKIN" blush:i="0.3.2.0.0.0.0"/></g><path d="M52,16 C60.2842712,16 67,22.7157288 67,31 L66.9973324,30.7869626 C79.0540462,26.6094246 94.7009761,31.4903648 92.6071441,41.2806601 C91.2626171,47.5673707 83.9814383,50.7073555 76.818281,54.067812 C75.7649022,52.2369923 73.7540137,51 71.4466684,51 C68.0464589,51 65.2900445,53.6862915 65.2900445,57 C65.2900445,58.1935612 65.647651,59.3057239 66.2641422,60.2402777 C63.8547022,62.3363574 62.1544354,64.8594168 61.7432388,68.1317726 C57.8594273,68.1317726 51.5820729,56.7283038 53.6546875,45.9093462 C53.1114025,45.9693919 52.5592757,46 52,46 C43.7157288,46 37,39.2842712 37,31 C37,22.7157288 43.7157288,16 52,16 Z" id="Hair" fill="#181658" blush:color="Hair-500" blush:i="0.3.2.0.0.1"/></g></g></g><g id="" mask="url(#mastercompositionspace-mask-2)" blush:i="0.3.3"><g transform="translate(-26.540822, 268.342688) scale(1.5066666666666666 1.4476987447698744)" blush:width="452" blush:height="346" id="Bottom/Standing" blush:component="Bottom/Standing" blush:i="0.3.3.0"><g id="Bottom/Standing/Skinny Jeans" stroke="none" stroke-width="1" fill="none" fill-rule="evenodd" blush:i="0.3.3.0.0"><polygon id="Leg" fill="#56919c" points="128 9.9475983e-14 164.254962 127.226909 190.706957 221 210 221 181.890974 9.9475983e-14" blush:color="Bottom-700" blush:i="0.3.3.0.0.0"/><path d="M118.304342,0 C117.465768,65.5742244 114.606247,101.340188 113.725779,107.297892 C112.845311,113.255595 99.5321718,151.156298 73.7863613,221 L93.7726468,221 C126.549033,153.996902 144.845651,116.096199 148.662499,107.297892 C152.479348,98.4995844 164.258515,62.7336205 182,0 L118.304342,0 Z" id="Leg" fill="#89c5cc" blush:color="Bottom-500" blush:i="0.3.3.0.0.1"/><path d="M72,239 L73,218 L94,218 C103.957603,225 116.957603,230.666667 133,235 L133,239 L95,239 L82,237 L82,239 L72,239 Z" id="Shoe" fill="#191847" blush:i="0.3.3.0.0.2"/><path d="M188,239 L189,218 L210,218 C219.957603,225 232.957603,230.666667 249,235 L249,239 L211,239 L198,237 L198,239 L188,239 Z" id="Shoe" fill="#191847" blush:i="0.3.3.0.0.3"/></g></g></g><g id="" mask="url(#mastercompositionspace-mask-2)" blush:i="0.3.4"><g transform="translate(184.959178, 257.842688) rotate(-14.000000) translate(-184.959178, -257.842688) translate(-7.540822, 122.342688) scale(1.50390625 1.4491978609625669)" blush:width="385" blush:height="271" id="Body" blush:component="Body" blush:i="0.3.4.0"><g id="Body/Jacket" stroke="none" stroke-width="1" fill="none" fill-rule="evenodd" blush:i="0.3.4.0.0"><path d="M68.3079281,93.0198914 L89.2053198,93.1020711 C76.3021447,134.755739 69.3363474,156.856914 68.3079281,159.405597 C65.9939846,165.140133 70.8906002,173.873732 72.9845874,178.567103 C66.1645409,181.61887 66.8912241,170.316929 58.2879189,174.319492 C50.4352209,177.972846 44.4616931,184.59248 35.3890352,178.994371 C34.2736052,178.306117 33.0512757,175.714714 36.0045784,173.68967 C43.3623323,168.644547 53.9653015,159.814672 55.3979297,156.908251 C57.3515741,152.944826 61.6549068,131.648706 68.3079281,93.0198914 L68.3079281,93.0198914 Z M194.04441,89.1225115 L222.372314,116.757535 C230.61469,120.273345 237.368143,124.155511 242.632673,128.40403 C243.816587,129.832102 245.10547,132.568362 239.535214,131.343925 C233.964957,130.119488 228.050816,129.082079 227.003896,130.893567 C225.956977,132.705055 229.041811,135.480899 227.106974,137.851671 C225.817082,139.432186 221.479076,134.404878 214.092956,122.769747 L184.635682,105.402467 L194.04441,89.1225115 Z" id="SKIN" fill="#d4a181" blush:color="Skin-500" blush:i="0.3.4.0.0.0"/><path d="M122.01899,9.23199981 L130.503942,7.00082913 C148.576175,42.7520052 177.414525,74.1501034 217.01899,101.195124 L192.061793,137.56505 C151.33882,97.6857553 124.670571,55.1985909 122.01899,9.23199981 Z" id="Coat-Back" fill="#191847" transform="translate(169.518990, 72.282940) rotate(5.000000) translate(-169.518990, -72.282940)" blush:color="Top-700" blush:i="0.3.4.0.0.1"/><path d="M90,114 L167,114 C149.16087,70.6251468 140.241304,33.7787236 140.241304,3.4607303 L117.014208,0 C98.7598929,29.3584068 93.6048263,65.5045499 90,114 Z" id="Shirt" fill="#C7D1D9" blush:i="0.3.4.0.0.2"/><path d="M118.047752,-4.26325641e-14 C119.86198,0.0624731357 122.625282,0.175030894 126.337658,0.337673275 L126.337658,0.337673275 L131.950158,16.3768801 C132.543836,35.9324229 136.010826,75.3421183 142.351127,134.605966 L142.351127,134.605966 L91.8760675,134.60553 C92.008386,138.698782 92.2265651,142.830272 92.5306047,147 L92.5306047,147 L55,147 C60.6139164,83.6639633 81.1152373,34.6639633 116.503963,1.42108547e-14 L116.503963,1.42108547e-14 L116.522,0.017 L116.531583,-4.26325641e-14 Z" id="Coat-Front" fill="#393f82" blush:color="Top-500" blush:i="0.3.4.0.0.3"/><path d="M106,135 L91.889057,134.999288 C91.2713571,116.643048 92.3783198,99.0548837 95.2099449,82.2347951 C96.6469231,107.748771 100.243477,125.3371 106,135 Z" id="Shade" fill-opacity=".1" fill="#000" blush:i="0.3.4.0.0.4"/><polygon id="Light" fill-opacity=".2" fill="#FFF" points="103.110899 104 128 92.4292718 128 104" blush:i="0.3.4.0.0.5"/></g></g></g></g><circle id="Oval" fill="#FFEBA9" cx="291" cy="442" r="42" blush:i="0.4"/><polygon id="Polygon" fill="#2026A2" opacity=".399" points="294 82 302 90 294 98 286 90" blush:i="0.5"/></g></svg>